<?xml version="1.0" encoding="UTF-8"?>
<!DOCTYPE svg PUBLIC "-//W3C//DTD SVG 1.1//EN" "http://www.w3.org/Graphics/SVG/1.1/DTD/svg11.dtd">
<svg xmlns="http://www.w3.org/2000/svg" version="1.1" width="584px" height="487px" style="shape-rendering:geometricPrecision; text-rendering:geometricPrecision; image-rendering:optimizeQuality; fill-rule:evenodd; clip-rule:evenodd" xmlns:xlink="http://www.w3.org/1999/xlink">
<g><path style="opacity:1" fill="#9fb874" d="M 353.5,14.5 C 351.167,14.5 348.833,14.5 346.5,14.5C 335.806,13.7838 325.139,12.7838 314.5,11.5C 288.437,9.30639 262.437,10.8064 236.5,16C 233.269,16.8611 230.269,18.0278 227.5,19.5C 222.507,19.9157 217.507,20.2491 212.5,20.5C 212.611,19.8826 212.944,19.3826 213.5,19C 259.991,6.89868 306.658,5.39868 353.5,14.5 Z"/></g>
<g><path style="opacity:1" fill="#61783f" d="M 279.5,12.5 C 290.988,11.5051 302.655,11.1717 314.5,11.5C 325.139,12.7838 335.806,13.7838 346.5,14.5C 349.167,15.5 351.833,16.5 354.5,17.5C 341.18,16.0677 327.846,14.5677 314.5,13C 302.838,12.5001 291.171,12.3335 279.5,12.5 Z"/></g>
<g><path style="opacity:1" fill="#5e7c34" d="M 314.5,11.5 C 302.655,11.1717 290.988,11.5051 279.5,12.5C 262.009,13.713 244.676,16.0464 227.5,19.5C 230.269,18.0278 233.269,16.8611 236.5,16C 262.437,10.8064 288.437,9.30639 314.5,11.5 Z"/></g>
<g><path style="opacity:1" fill="#5d783b" d="M 354.5,17.5 C 366.399,18.9201 377.732,21.9201 388.5,26.5C 377.082,23.4938 365.749,20.4938 354.5,17.5 Z"/></g>
<g><path style="opacity:1" fill="#83a350" d="M 346.5,14.5 C 348.833,14.5 351.167,14.5 353.5,14.5C 419.073,26.299 473.906,56.9657 518,106.5C 521.015,109.878 523.515,113.544 525.5,117.5C 524.18,116.058 522.514,115.392 520.5,115.5C 520.5,116.5 520.5,117.5 520.5,118.5C 486.277,74.035 442.277,43.3684 388.5,26.5C 377.732,21.9201 366.399,18.9201 354.5,17.5C 351.833,16.5 349.167,15.5 346.5,14.5 Z"/></g>
<g><path style="opacity:1" fill="#81a34f" d="M 227.5,19.5 C 223.8,21.2809 219.8,22.2809 215.5,22.5C 154.866,38.3104 105.866,71.3104 68.5,121.5C 68.4347,118.002 67.1014,117.502 64.5,120C 63.73,122.567 62.73,125.067 61.5,127.5C 58.8528,129.295 56.5195,131.295 54.5,133.5C 71.0447,106.114 92.3781,82.9473 118.5,64C 144.51,45.4955 172.843,31.4955 203.5,22C 206.432,21.0467 209.432,20.5467 212.5,20.5C 217.507,20.2491 222.507,19.9157 227.5,19.5 Z"/></g>
<g><path style="opacity:1" fill="#db4361" d="M 302.5,66.5 C 300.952,66.1788 300.285,65.1788 300.5,63.5C 299.167,63.5 297.833,63.5 296.5,63.5C 296.662,61.4727 296.495,59.4727 296,57.5C 295.667,57.8333 295.333,58.1667 295,58.5C 295.145,55.0767 293.645,53.0767 290.5,52.5C 291.34,56.1284 292.673,59.6284 294.5,63C 289.036,66.34 288.536,70.1733 293,74.5C 293.494,76.1341 293.66,77.8008 293.5,79.5C 289.566,72.4776 285.233,65.6443 280.5,59C 279.551,58.3828 278.718,58.5494 278,59.5C 276.335,66.4686 276.001,73.4686 277,80.5C 271.948,72.5779 270.281,63.9112 272,54.5C 274.887,46.3928 278.053,38.3928 281.5,30.5C 289.504,41.831 296.504,53.831 302.5,66.5 Z"/></g>
<g><path style="opacity:1" fill="#d03b54" d="M 256.5,68.5 C 256.663,66.1432 256.497,63.8098 256,61.5C 252.585,64.7447 249.751,68.4114 247.5,72.5C 246.06,73.9524 244.394,74.9524 242.5,75.5C 252,61.4863 262.5,48.153 274,35.5C 268.192,46.4457 262.359,57.4457 256.5,68.5 Z"/></g>
<g><path style="opacity:1" fill="#e53a5d" d="M 306.5,46.5 C 309.455,48.1223 312.122,50.1223 314.5,52.5C 314.119,53.9311 313.119,54.7645 311.5,55C 312,55.5 312.5,56 313,56.5C 314.183,55.269 315.349,55.269 316.5,56.5C 315.5,57.1667 314.5,57.8333 313.5,58.5C 315.284,59.606 317.118,59.606 319,58.5C 320.933,59.8825 322.766,61.3825 324.5,63C 321.659,64.7651 318.826,64.5984 316,62.5C 315.163,64.0074 313.996,64.5074 312.5,64C 309.955,58.4778 307.289,52.9778 304.5,47.5C 304.957,46.7025 305.624,46.3691 306.5,46.5 Z"/></g>
<g><path style="opacity:1" fill="#516d2d" d="M 215.5,22.5 C 203.829,26.3373 192.162,30.5039 180.5,35C 111.705,63.9584 64.7045,113.458 39.5,183.5C 41.2973,175.69 43.6306,168.023 46.5,160.5C 52.5236,146.789 59.8569,133.789 68.5,121.5C 105.866,71.3104 154.866,38.3104 215.5,22.5 Z"/></g>
<g><path style="opacity:1" fill="#546f32" d="M 388.5,26.5 C 442.277,43.3684 486.277,74.035 520.5,118.5C 524.395,125.279 528.561,131.945 533,138.5C 534.009,140.025 534.509,141.692 534.5,143.5C 522.707,123.186 508.374,104.686 491.5,88C 461.498,60.3289 427.165,39.8289 388.5,26.5 Z"/></g>
<g><path style="opacity:1" fill="#e33a5d" d="M 302.5,66.5 C 303.62,71.1974 304.953,75.8641 306.5,80.5C 305.5,80.5 304.5,80.5 303.5,80.5C 303.762,77.0791 302.428,76.0791 299.5,77.5C 298.833,79.1667 298.167,80.8333 297.5,82.5C 296.717,80.7118 295.384,79.7118 293.5,79.5C 293.66,77.8008 293.494,76.1341 293,74.5C 288.536,70.1733 289.036,66.34 294.5,63C 292.673,59.6284 291.34,56.1284 290.5,52.5C 293.645,53.0767 295.145,55.0767 295,58.5C 295.333,58.1667 295.667,57.8333 296,57.5C 296.495,59.4727 296.662,61.4727 296.5,63.5C 297.833,63.5 299.167,63.5 300.5,63.5C 300.285,65.1788 300.952,66.1788 302.5,66.5 Z"/></g>
<g><path style="opacity:1" fill="#cb3b58" d="M 306.5,46.5 C 305.624,46.3691 304.957,46.7025 304.5,47.5C 307.289,52.9778 309.955,58.4778 312.5,64C 313.996,64.5074 315.163,64.0074 316,62.5C 318.826,64.5984 321.659,64.7651 324.5,63C 322.766,61.3825 320.933,59.8825 319,58.5C 317.118,59.606 315.284,59.606 313.5,58.5C 314.5,57.8333 315.5,57.1667 316.5,56.5C 315.349,55.269 314.183,55.269 313,56.5C 312.5,56 312,55.5 311.5,55C 313.119,54.7645 314.119,53.9311 314.5,52.5C 323.5,59.1667 332.5,65.8333 341.5,72.5C 342.955,75.1819 344.289,77.8486 345.5,80.5C 343.401,81.2309 341.401,81.2309 339.5,80.5C 340.853,79.4763 341.52,78.143 341.5,76.5C 340.5,76.5 339.5,76.5 338.5,76.5C 338.719,77.675 338.386,78.675 337.5,79.5C 336.274,77.7221 334.607,76.7221 332.5,76.5C 331.469,75.645 330.303,74.9783 329,74.5C 327.97,74.8361 327.47,75.5028 327.5,76.5C 327.357,78.2624 327.691,79.9291 328.5,81.5C 327.311,82.4287 325.978,82.762 324.5,82.5C 312.625,69.744 304.125,55.0774 299,38.5C 301.705,41.0362 304.205,43.7029 306.5,46.5 Z"/></g>
<g><path style="opacity:1" fill="#a8314b" d="M 341.5,72.5 C 344.729,74.9416 347.729,77.6082 350.5,80.5C 349.908,84.074 351.408,86.074 355,86.5C 355.483,87.448 355.649,88.448 355.5,89.5C 352.627,87.8235 349.461,86.4901 346,85.5C 344.862,85.9891 343.695,86.3225 342.5,86.5C 338.86,83.5271 335.527,80.1938 332.5,76.5C 334.607,76.7221 336.274,77.7221 337.5,79.5C 338.386,78.675 338.719,77.675 338.5,76.5C 339.5,76.5 340.5,76.5 341.5,76.5C 341.52,78.143 340.853,79.4763 339.5,80.5C 341.401,81.2309 343.401,81.2309 345.5,80.5C 344.289,77.8486 342.955,75.1819 341.5,72.5 Z"/></g>
<g><path style="opacity:1" fill="#dd2b49" d="M 256.5,68.5 C 255.624,68.3691 254.957,68.7025 254.5,69.5C 254.113,72.2061 253.113,74.5395 251.5,76.5C 250.096,81.4005 249.429,86.4005 249.5,91.5C 249.5,92.5 249.5,93.5 249.5,94.5C 248.778,94.9175 248.278,95.5842 248,96.5C 247.667,96.1667 247.333,95.8333 247,95.5C 242.468,96.736 237.968,98.0693 233.5,99.5C 233.167,98 232.833,96.5 232.5,95C 232.965,92.3967 233.632,89.8967 234.5,87.5C 236.178,82.8033 238.844,78.8033 242.5,75.5C 244.394,74.9524 246.06,73.9524 247.5,72.5C 249.751,68.4114 252.585,64.7447 256,61.5C 256.497,63.8098 256.663,66.1432 256.5,68.5 Z"/></g>
<g><path style="opacity:1" fill="#922944" d="M 350.5,80.5 C 352.5,82.1667 354.5,83.8333 356.5,85.5C 357.305,88.8167 359.139,91.4834 362,93.5C 361.991,101.134 359.824,101.967 355.5,96C 354.207,95.51 352.873,95.3433 351.5,95.5C 348.14,92.8062 345.14,89.8062 342.5,86.5C 343.695,86.3225 344.862,85.9891 346,85.5C 349.461,86.4901 352.627,87.8235 355.5,89.5C 355.649,88.448 355.483,87.448 355,86.5C 351.408,86.074 349.908,84.074 350.5,80.5 Z"/></g>
<g><path style="opacity:1" fill="#c73f54" d="M 256.5,68.5 C 254.31,76.2711 251.977,83.9378 249.5,91.5C 249.429,86.4005 250.096,81.4005 251.5,76.5C 253.113,74.5395 254.113,72.2061 254.5,69.5C 254.957,68.7025 255.624,68.3691 256.5,68.5 Z"/></g>
<g><path style="opacity:1" fill="#aa3953" d="M 327.5,76.5 C 329.881,81.5925 332.548,86.5925 335.5,91.5C 335.631,92.2389 335.464,92.9056 335,93.5C 334.329,92.7476 333.496,92.4142 332.5,92.5C 329.833,89.1667 327.167,85.8333 324.5,82.5C 325.978,82.762 327.311,82.4287 328.5,81.5C 327.691,79.9291 327.357,78.2624 327.5,76.5 Z"/></g>
<g><path style="opacity:1" fill="#d53650" d="M 209.5,122.5 C 208.075,124.031 207.409,123.698 207.5,121.5C 207.5,120.833 207.5,120.167 207.5,119.5C 209.67,116.613 211.337,113.28 212.5,109.5C 211.975,108.808 211.308,108.308 210.5,108C 214.768,105.252 216.601,101.419 216,96.5C 215,97.1667 214,97.8333 213,98.5C 210.811,103.569 209.311,108.902 208.5,114.5C 207.5,114.5 206.5,114.5 205.5,114.5C 206.826,111.318 207.326,107.985 207,104.5C 204.833,107.5 202.667,110.5 200.5,113.5C 199.675,114.386 198.675,114.719 197.5,114.5C 209.76,94.4002 225.093,76.9002 243.5,62C 244.167,61.3333 244.833,61.3333 245.5,62C 230.568,80.354 218.568,100.521 209.5,122.5 Z"/></g>
<g><path style="opacity:1" fill="#c93a58" d="M 302.5,66.5 C 306.949,73.7325 310.615,81.3992 313.5,89.5C 313.813,92.2469 313.48,94.9135 312.5,97.5C 311.914,97.2907 311.414,96.9574 311,96.5C 309.041,97.7481 307.541,99.4148 306.5,101.5C 305.717,99.7118 304.384,98.7118 302.5,98.5C 299.693,92.081 296.693,85.7477 293.5,79.5C 295.384,79.7118 296.717,80.7118 297.5,82.5C 298.167,80.8333 298.833,79.1667 299.5,77.5C 302.428,76.0791 303.762,77.0791 303.5,80.5C 304.5,80.5 305.5,80.5 306.5,80.5C 304.953,75.8641 303.62,71.1974 302.5,66.5 Z"/></g>
<g><path style="opacity:1" fill="#853c51" d="M 335.5,91.5 C 339.383,96.5173 342.55,101.851 345,107.5C 340.622,102.627 336.455,97.6268 332.5,92.5C 333.496,92.4142 334.329,92.7476 335,93.5C 335.464,92.9056 335.631,92.2389 335.5,91.5 Z"/></g>
<g><path style="opacity:1" fill="#d63651" d="M 234.5,87.5 C 233.632,89.8967 232.965,92.3967 232.5,95C 232.833,96.5 233.167,98 233.5,99.5C 237.968,98.0693 242.468,96.736 247,95.5C 247.333,95.8333 247.667,96.1667 248,96.5C 248.278,95.5842 248.778,94.9175 249.5,94.5C 248.864,110.562 246.197,126.229 241.5,141.5C 239.824,140.817 239.157,139.483 239.5,137.5C 241.211,133.119 241.877,128.453 241.5,123.5C 241.5,120.167 241.5,116.833 241.5,113.5C 242.814,108.652 242.814,103.652 241.5,98.5C 240.893,98.6236 240.56,98.9569 240.5,99.5C 238.819,102.203 237.153,104.869 235.5,107.5C 235.5,105.167 235.5,102.833 235.5,100.5C 232.802,100.45 230.636,101.45 229,103.5C 227.989,102.663 226.822,102.33 225.5,102.5C 225.405,106.225 225.238,109.891 225,113.5C 226.394,115.402 228.227,115.735 230.5,114.5C 230.5,113.5 230.5,112.5 230.5,111.5C 231.959,111.567 233.292,111.234 234.5,110.5C 232.084,115.667 229.418,120.667 226.5,125.5C 226.917,122.921 226.25,120.754 224.5,119C 224.833,118.667 225.167,118.333 225.5,118C 224.057,116.933 222.724,115.766 221.5,114.5C 218.445,117.943 216.445,121.943 215.5,126.5C 217.838,127.437 220.005,128.77 222,130.5C 223.301,128.845 224.801,127.511 226.5,126.5C 222.811,135.915 219.144,145.249 215.5,154.5C 215.761,148.684 217.094,143.184 219.5,138C 219.375,134.359 218.042,131.192 215.5,128.5C 214.478,130.855 212.812,132.522 210.5,133.5C 216.056,116.785 224.056,101.452 234.5,87.5 Z"/></g>
<g><path style="opacity:1" fill="#741e39" d="M 356.5,85.5 C 362.176,91.177 367.509,97.177 372.5,103.5C 374.061,106.773 375.728,110.106 377.5,113.5C 377.167,113.833 376.833,114.167 376.5,114.5C 372.512,112.346 370.346,109.013 370,104.5C 368.684,101.972 367.517,101.972 366.5,104.5C 367.686,107.603 369.02,110.603 370.5,113.5C 369.635,114.583 368.635,114.749 367.5,114C 366.038,111.168 364.038,109.001 361.5,107.5C 357.82,103.817 354.486,99.817 351.5,95.5C 352.873,95.3433 354.207,95.51 355.5,96C 359.824,101.967 361.991,101.134 362,93.5C 359.139,91.4834 357.305,88.8167 356.5,85.5 Z"/></g>
<g><path style="opacity:1" fill="#af2e4b" d="M 313.5,89.5 C 315.258,92.8544 316.258,96.521 316.5,100.5C 316.92,107.284 316.42,113.95 315,120.5C 314.506,118.866 314.34,117.199 314.5,115.5C 312.379,115.675 310.379,115.341 308.5,114.5C 306.72,109.17 304.72,103.837 302.5,98.5C 304.384,98.7118 305.717,99.7118 306.5,101.5C 307.541,99.4148 309.041,97.7481 311,96.5C 311.414,96.9574 311.914,97.2907 312.5,97.5C 313.48,94.9135 313.813,92.2469 313.5,89.5 Z"/></g>
<g><path style="opacity:1" fill="#db2b49" d="M 235.5,107.5 C 234.89,108.391 234.557,109.391 234.5,110.5C 233.292,111.234 231.959,111.567 230.5,111.5C 230.5,112.5 230.5,113.5 230.5,114.5C 228.227,115.735 226.394,115.402 225,113.5C 225.238,109.891 225.405,106.225 225.5,102.5C 226.822,102.33 227.989,102.663 229,103.5C 230.636,101.45 232.802,100.45 235.5,100.5C 235.5,102.833 235.5,105.167 235.5,107.5 Z"/></g>
<g><path style="opacity:1" fill="#e3adb6" d="M 240.5,99.5 C 240.56,98.9569 240.893,98.6236 241.5,98.5C 242.814,103.652 242.814,108.652 241.5,113.5C 241.819,108.637 241.486,103.97 240.5,99.5 Z"/></g>
<g><path style="opacity:1" fill="#e02948" d="M 207.5,119.5 C 207.719,118.325 207.386,117.325 206.5,116.5C 204.5,117.833 202.5,119.167 200.5,120.5C 199.048,119.06 198.048,117.394 197.5,115.5C 197.5,115.167 197.5,114.833 197.5,114.5C 198.675,114.719 199.675,114.386 200.5,113.5C 202.667,110.5 204.833,107.5 207,104.5C 207.326,107.985 206.826,111.318 205.5,114.5C 206.5,114.5 207.5,114.5 208.5,114.5C 209.311,108.902 210.811,103.569 213,98.5C 214,97.8333 215,97.1667 216,96.5C 216.601,101.419 214.768,105.252 210.5,108C 211.308,108.308 211.975,108.808 212.5,109.5C 211.337,113.28 209.67,116.613 207.5,119.5 Z"/></g>
<g><path style="opacity:1" fill="#94243f" d="M 316.5,100.5 C 317.451,101.919 317.784,103.585 317.5,105.5C 317.73,112.555 317.23,119.555 316,126.5C 313.152,129.537 311.985,133.204 312.5,137.5C 311.5,137.5 310.5,137.5 309.5,137.5C 309.888,133.847 310.221,130.18 310.5,126.5C 310.713,123.473 310.047,120.807 308.5,118.5C 308.5,117.167 308.5,115.833 308.5,114.5C 310.379,115.341 312.379,115.675 314.5,115.5C 314.34,117.199 314.506,118.866 315,120.5C 316.42,113.95 316.92,107.284 316.5,100.5 Z"/></g>
<g><path style="opacity:1" fill="#df294a" d="M 226.5,125.5 C 226.5,125.833 226.5,126.167 226.5,126.5C 224.801,127.511 223.301,128.845 222,130.5C 220.005,128.77 217.838,127.437 215.5,126.5C 216.445,121.943 218.445,117.943 221.5,114.5C 222.724,115.766 224.057,116.933 225.5,118C 225.167,118.333 224.833,118.667 224.5,119C 226.25,120.754 226.917,122.921 226.5,125.5 Z"/></g>
<g><path style="opacity:1" fill="#8ca55b" d="M 525.5,117.5 C 532.159,125.475 537.825,134.142 542.5,143.5C 541.357,143.092 540.357,142.425 539.5,141.5C 535.086,134.62 530.586,127.954 526,121.5C 525.51,120.207 525.343,118.873 525.5,117.5 Z"/></g>
<g><path style="opacity:1" fill="#c24c65" d="M 207.5,121.5 C 207.409,123.698 208.075,124.031 209.5,122.5C 205.959,133.253 202.126,143.92 198,154.5C 197.333,153.167 197.333,151.833 198,150.5C 200.727,140.554 203.894,130.888 207.5,121.5 Z"/></g>
<g><path style="opacity:1" fill="#cb606e" d="M 241.5,123.5 C 241.877,128.453 241.211,133.119 239.5,137.5C 239.813,132.647 240.479,127.98 241.5,123.5 Z"/></g>
<g><path style="opacity:1" fill="#681b34" d="M 372.5,103.5 C 383.117,116.062 390.617,130.395 395,146.5C 396.099,157.269 393.933,167.269 388.5,176.5C 387.414,176.38 386.747,175.713 386.5,174.5C 387.063,164.953 387.396,155.619 387.5,146.5C 387.281,145.062 386.781,143.729 386,142.5C 383.661,141.27 381.494,139.937 379.5,138.5C 374.331,127.669 368.331,117.336 361.5,107.5C 364.038,109.001 366.038,111.168 367.5,114C 368.635,114.749 369.635,114.583 370.5,113.5C 369.02,110.603 367.686,107.603 366.5,104.5C 367.517,101.972 368.684,101.972 370,104.5C 370.346,109.013 372.512,112.346 376.5,114.5C 376.833,114.167 377.167,113.833 377.5,113.5C 375.728,110.106 374.061,106.773 372.5,103.5 Z"/></g>
<g><path style="opacity:1" fill="#7f293f" d="M 317.5,105.5 C 319.77,119.09 317.603,132.09 311,144.5C 308.332,148.334 305.165,151.667 301.5,154.5C 299.438,154.128 297.771,153.795 296.5,153.5C 305.554,143.642 309.554,131.976 308.5,118.5C 310.047,120.807 310.713,123.473 310.5,126.5C 310.221,130.18 309.888,133.847 309.5,137.5C 310.5,137.5 311.5,137.5 312.5,137.5C 311.985,133.204 313.152,129.537 316,126.5C 317.23,119.555 317.73,112.555 317.5,105.5 Z"/></g>
<g><path style="opacity:1" fill="#bf677a" d="M 239.5,137.5 C 239.157,139.483 239.824,140.817 241.5,141.5C 241.179,143.048 240.179,143.715 238.5,143.5C 238.205,141.265 238.539,139.265 239.5,137.5 Z"/></g>
<g><path style="opacity:1" fill="#93b34d" d="M 525.5,117.5 C 525.343,118.873 525.51,120.207 526,121.5C 530.586,127.954 535.086,134.62 539.5,141.5C 540.357,142.425 541.357,143.092 542.5,143.5C 544.674,146.515 546.341,149.849 547.5,153.5C 547.5,154.833 547.5,156.167 547.5,157.5C 545.027,153.264 543.694,153.597 543.5,158.5C 542.833,158.167 542.167,157.833 541.5,157.5C 540.675,151.994 538.342,147.327 534.5,143.5C 534.509,141.692 534.009,140.025 533,138.5C 528.561,131.945 524.395,125.279 520.5,118.5C 520.5,117.5 520.5,116.5 520.5,115.5C 522.514,115.392 524.18,116.058 525.5,117.5 Z"/></g>
<g><path style="opacity:1" fill="#8e2a44" d="M 285.5,141.5 C 288.075,142.728 290.408,144.395 292.5,146.5C 290.033,152.324 286.533,152.99 282,148.5C 281.333,147.5 281.333,146.5 282,145.5C 283.376,144.295 284.542,142.962 285.5,141.5 Z"/></g>
<g><path style="opacity:1" fill="#5d7536" d="M 534.5,143.5 C 538.342,147.327 540.675,151.994 541.5,157.5C 538.659,153.151 536.326,148.484 534.5,143.5 Z"/></g>
<g><path style="opacity:1" fill="#94b352" d="M 68.5,121.5 C 59.8569,133.789 52.5236,146.789 46.5,160.5C 46.8651,155.579 45.8651,155.245 43.5,159.5C 42.3112,160.429 40.9778,160.762 39.5,160.5C 43.7549,150.981 48.7549,141.981 54.5,133.5C 56.5195,131.295 58.8528,129.295 61.5,127.5C 62.73,125.067 63.73,122.567 64.5,120C 67.1014,117.502 68.4347,118.002 68.5,121.5 Z"/></g>
<g><path style="opacity:1" fill="#e2385a" d="M 197.5,115.5 C 198.048,117.394 199.048,119.06 200.5,120.5C 202.5,119.167 204.5,117.833 206.5,116.5C 207.386,117.325 207.719,118.325 207.5,119.5C 205.983,119.511 204.816,120.177 204,121.5C 197.86,132.628 192.193,143.961 187,155.5C 184.832,164.173 182.665,172.84 180.5,181.5C 179.778,181.918 179.278,182.584 179,183.5C 177.413,178.931 177.913,174.431 180.5,170C 180.389,168.278 179.889,168.112 179,169.5C 178.517,170.448 178.351,171.448 178.5,172.5C 177.167,172.5 175.833,172.5 174.5,172.5C 174.704,169.482 175.037,166.482 175.5,163.5C 175.5,163.167 175.5,162.833 175.5,162.5C 179.615,158.099 181.615,152.766 181.5,146.5C 186.071,135.688 191.405,125.355 197.5,115.5 Z"/></g>
<g><path style="opacity:1" fill="#db2b49" d="M 215.5,154.5 C 214.29,160.554 212.956,166.554 211.5,172.5C 209.91,174.475 208.743,176.808 208,179.5C 206.564,175.234 205.398,170.901 204.5,166.5C 204.552,161.615 205.386,156.949 207,152.5C 207.333,154.5 207.667,156.5 208,158.5C 208.333,157.5 208.667,156.5 209,155.5C 208.586,150.92 208.419,146.42 208.5,142C 210.321,139.544 210.988,136.711 210.5,133.5C 212.812,132.522 214.478,130.855 215.5,128.5C 218.042,131.192 219.375,134.359 219.5,138C 217.094,143.184 215.761,148.684 215.5,154.5 Z"/></g>
<g><path style="opacity:1" fill="#ce4e69" d="M 181.5,146.5 C 181.615,152.766 179.615,158.099 175.5,162.5C 176.987,156.88 178.987,151.547 181.5,146.5 Z"/></g>
<g><path style="opacity:1" fill="#8fa55d" d="M 547.5,153.5 C 551.122,159.018 553.789,165.018 555.5,171.5C 553.017,166.704 550.35,162.038 547.5,157.5C 547.5,156.167 547.5,154.833 547.5,153.5 Z"/></g>
<g><path style="opacity:1" fill="#627f37" d="M 541.5,157.5 C 542.167,157.833 542.833,158.167 543.5,158.5C 546.285,164.523 548.285,170.857 549.5,177.5C 546.314,171.116 543.648,164.449 541.5,157.5 Z"/></g>
<g><path style="opacity:1" fill="#91a66c" d="M 39.5,161.5 C 38.8481,167.177 36.8481,172.177 33.5,176.5C 34.7376,171.105 36.7376,166.105 39.5,161.5 Z"/></g>
<g><path style="opacity:1" fill="#d74962" d="M 175.5,163.5 C 175.037,166.482 174.704,169.482 174.5,172.5C 175.833,172.5 177.167,172.5 178.5,172.5C 178.351,171.448 178.517,170.448 179,169.5C 179.889,168.112 180.389,168.278 180.5,170C 177.913,174.431 177.413,178.931 179,183.5C 179.278,182.584 179.778,181.918 180.5,181.5C 178.654,195.734 177.988,210.067 178.5,224.5C 178.167,224.5 177.833,224.5 177.5,224.5C 177.5,218.5 177.5,212.5 177.5,206.5C 177.96,196.402 177.293,186.402 175.5,176.5C 174.914,176.291 174.414,175.957 174,175.5C 171.855,179.934 170.522,184.6 170,189.5C 169.148,190.571 168.315,191.571 167.5,192.5C 168.578,182.283 171.245,172.616 175.5,163.5 Z"/></g>
<g><path style="opacity:1" fill="#602035" d="M 379.5,138.5 C 381.494,139.937 383.661,141.27 386,142.5C 386.781,143.729 387.281,145.062 387.5,146.5C 387.396,155.619 387.063,164.953 386.5,174.5C 386.747,175.713 387.414,176.38 388.5,176.5C 385.472,184.719 380.806,191.885 374.5,198C 371.586,199.766 368.586,201.266 365.5,202.5C 363.901,202.768 362.568,202.434 361.5,201.5C 380.463,191.574 388.297,175.907 385,154.5C 383.655,148.962 381.821,143.629 379.5,138.5 Z"/></g>
<g><path style="opacity:1" fill="#c2996a" d="M 408.5,187.5 C 407.732,186.737 407.232,185.737 407,184.5C 406.503,187.146 406.336,189.813 406.5,192.5C 406.167,192.5 405.833,192.5 405.5,192.5C 404.883,185.147 404.383,177.814 404,170.5C 405.575,176.235 407.075,181.901 408.5,187.5 Z"/></g>
<g><path style="opacity:1" fill="#9cbea9" d="M 433.5,198.5 C 433.167,198.5 432.833,198.5 432.5,198.5C 429.108,193.395 425.941,188.062 423,182.5C 421.813,180.956 421.48,179.289 422,177.5C 425.846,184.527 429.679,191.527 433.5,198.5 Z"/></g>
<g><path style="opacity:1" fill="#642035" d="M 296.5,153.5 C 297.771,153.795 299.438,154.128 301.5,154.5C 300.426,155.885 299.093,157.051 297.5,158C 303.167,158.667 308.833,158.667 314.5,158C 316.844,156.972 319.177,156.306 321.5,156C 312.265,167.567 301.432,177.4 289,185.5C 288.814,187.9 288.314,190.234 287.5,192.5C 286.571,191.311 286.238,189.978 286.5,188.5C 284.297,188.604 282.297,189.27 280.5,190.5C 280.807,188.554 280.807,186.887 280.5,185.5C 274.584,188.29 268.584,188.957 262.5,187.5C 269.291,187.959 275.624,186.459 281.5,183C 281.657,178.269 281.824,173.435 282,168.5C 282.667,167.167 283.333,165.833 284,164.5C 288.979,161.683 293.146,158.016 296.5,153.5 Z"/></g>
<g><path style="opacity:1" fill="#6b1830" d="M 305.5,167.5 C 303.952,166.206 301.952,165.539 299.5,165.5C 295.376,165.533 291.376,166.199 287.5,167.5C 285.972,167.483 285.472,166.816 286,165.5C 289.1,162.81 292.1,160.143 295,157.5C 302.004,159.218 309.171,160.051 316.5,160C 315.646,161.022 314.646,161.855 313.5,162.5C 312.575,161.359 311.741,161.359 311,162.5C 310.51,163.793 310.343,165.127 310.5,166.5C 308.784,166.629 307.117,166.962 305.5,167.5 Z"/></g>
<g><path style="opacity:1" fill="#99b256" d="M 555.5,172.5 C 560.966,184.455 564.3,197.121 565.5,210.5C 563.77,207.309 562.437,203.975 561.5,200.5C 560.465,194.91 558.798,189.576 556.5,184.5C 555.836,180.524 555.503,176.524 555.5,172.5 Z"/></g>
<g><path style="opacity:1" fill="#8e1e3b" d="M 232.5,195.5 C 232.932,194.29 233.599,193.29 234.5,192.5C 238.937,189.256 243.77,186.59 249,184.5C 249.5,184.667 250,184.833 250.5,185C 248.393,186.264 247.393,188.097 247.5,190.5C 245.127,191.294 242.794,192.294 240.5,193.5C 239.614,194.325 239.281,195.325 239.5,196.5C 238.325,196.281 237.325,196.614 236.5,197.5C 233.582,202.654 232.249,201.987 232.5,195.5 Z"/></g>
<g><path style="opacity:1" fill="#829b49" d="M 39.5,183.5 C 35.9345,196.953 33.4345,210.62 32,224.5C 31.5002,238.507 31.6669,252.507 32.5,266.5C 31.0749,263.097 30.2415,259.43 30,255.5C 28.9843,236.339 30.3176,217.339 34,198.5C 35.3244,193.209 37.1578,188.209 39.5,183.5 Z"/></g>
<g><path style="opacity:1" fill="#78223a" d="M 262.5,187.5 C 268.584,188.957 274.584,188.29 280.5,185.5C 280.807,186.887 280.807,188.554 280.5,190.5C 274.062,194.59 267.062,196.09 259.5,195C 257.126,192.961 255.126,190.628 253.5,188C 246.885,191.911 240.719,196.745 235,202.5C 229.817,210.195 224.151,217.528 218,224.5C 218.206,227.606 219.039,230.606 220.5,233.5C 219.504,233.586 218.671,233.252 218,232.5C 216.982,228.709 216.149,224.875 215.5,221C 215.164,219.97 214.497,219.47 213.5,219.5C 213.5,218.833 213.5,218.167 213.5,217.5C 214.423,218.303 215.423,218.47 216.5,218C 223.797,211.593 229.131,204.093 232.5,195.5C 232.249,201.987 233.582,202.654 236.5,197.5C 237.325,196.614 238.325,196.281 239.5,196.5C 239.281,195.325 239.614,194.325 240.5,193.5C 242.794,192.294 245.127,191.294 247.5,190.5C 247.393,188.097 248.393,186.264 250.5,185C 250,184.833 249.5,184.667 249,184.5C 243.77,186.59 238.937,189.256 234.5,192.5C 236.237,190.45 238.237,188.617 240.5,187C 245.992,184.421 251.325,181.588 256.5,178.5C 257.271,180.862 258.105,183.196 259,185.5C 259.816,186.823 260.983,187.489 262.5,187.5 Z"/></g>
<g><path style="opacity:1" fill="#db3054" d="M 177.5,206.5 C 176.677,209.977 176.177,213.644 176,217.5C 173.313,220.961 172.813,224.794 174.5,229C 173.552,229.483 172.552,229.649 171.5,229.5C 171.76,225.652 171.094,221.985 169.5,218.5C 168.534,224.512 167.201,230.179 165.5,235.5C 165.5,225.833 165.5,216.167 165.5,206.5C 165.362,201.586 166.028,196.919 167.5,192.5C 168.315,191.571 169.148,190.571 170,189.5C 170.522,184.6 171.855,179.934 174,175.5C 174.414,175.957 174.914,176.291 175.5,176.5C 177.293,186.402 177.96,196.402 177.5,206.5 Z"/></g>
<g><path style="opacity:1" fill="#c82745" d="M 210.5,133.5 C 210.988,136.711 210.321,139.544 208.5,142C 208.419,146.42 208.586,150.92 209,155.5C 208.667,156.5 208.333,157.5 208,158.5C 207.667,156.5 207.333,154.5 207,152.5C 205.386,156.949 204.552,161.615 204.5,166.5C 205.398,170.901 206.564,175.234 208,179.5C 208.743,176.808 209.91,174.475 211.5,172.5C 210.886,176.135 210.552,179.802 210.5,183.5C 209.261,193.009 209.261,202.675 210.5,212.5C 210.333,213.833 210.167,215.167 210,216.5C 208.844,217.993 208.01,217.826 207.5,216C 206.239,208.719 204.739,201.553 203,194.5C 202.5,186.507 202.334,178.507 202.5,170.5C 203.355,157.675 206.022,145.341 210.5,133.5 Z"/></g>
<g><path style="opacity:1" fill="#a3c34f" d="M 46.5,160.5 C 43.6306,168.023 41.2973,175.69 39.5,183.5C 37.1578,188.209 35.3244,193.209 34,198.5C 30.3176,217.339 28.9843,236.339 30,255.5C 30.2415,259.43 31.0749,263.097 32.5,266.5C 33.4767,269.287 33.81,272.287 33.5,275.5C 30.8862,269.548 29.3862,263.215 29,256.5C 28.6667,244.5 28.3333,232.5 28,220.5C 27.0266,222.392 26.3599,224.392 26,226.5C 25.4557,234.331 24.9557,242.164 24.5,250C 25.4414,258.481 26.108,266.981 26.5,275.5C 25.9323,271.399 24.9323,267.399 23.5,263.5C 22.1667,249.833 22.1667,236.167 23.5,222.5C 25.8439,208.79 28.8439,195.123 32.5,181.5C 32.2155,179.585 32.5489,177.919 33.5,176.5C 36.8481,172.177 38.8481,167.177 39.5,161.5C 39.5,161.167 39.5,160.833 39.5,160.5C 40.9778,160.762 42.3112,160.429 43.5,159.5C 45.8651,155.245 46.8651,155.579 46.5,160.5 Z"/></g>
<g><path style="opacity:1" fill="#d9a365" d="M 413.5,197.5 C 418.055,202.954 420.721,209.287 421.5,216.5C 418.856,211.674 416.356,206.674 414,201.5C 413.51,200.207 413.343,198.873 413.5,197.5 Z"/></g>
<g><path style="opacity:1" fill="#d7a056" d="M 405.5,192.5 C 405.833,192.5 406.167,192.5 406.5,192.5C 405.319,201.158 405.319,209.824 406.5,218.5C 404.27,213.344 402.937,207.844 402.5,202C 402.664,198.492 403.664,195.326 405.5,192.5 Z"/></g>
<g><path style="opacity:1" fill="#572f3d" d="M 361.5,201.5 C 362.568,202.434 363.901,202.768 365.5,202.5C 350.716,207.537 335.716,212.204 320.5,216.5C 319.833,216.5 319.5,216.167 319.5,215.5C 333.824,211.754 347.824,207.087 361.5,201.5 Z"/></g>
<g><path style="opacity:1" fill="#92a85a" d="M 32.5,181.5 C 28.8439,195.123 25.8439,208.79 23.5,222.5C 24.1767,214.118 25.3434,205.785 27,197.5C 28.2382,191.839 30.0715,186.506 32.5,181.5 Z"/></g>
<g><path style="opacity:1" fill="#f6b345" d="M 408.5,187.5 C 409.655,191.144 411.322,194.477 413.5,197.5C 413.343,198.873 413.51,200.207 414,201.5C 416.356,206.674 418.856,211.674 421.5,216.5C 421.5,217.167 421.5,217.833 421.5,218.5C 419.621,217.659 417.621,217.325 415.5,217.5C 415.167,215.5 414.833,213.5 414.5,211.5C 413.5,211.5 412.5,211.5 411.5,211.5C 411.403,214.594 410.403,217.26 408.5,219.5C 407.833,219.167 407.167,218.833 406.5,218.5C 405.319,209.824 405.319,201.158 406.5,192.5C 406.336,189.813 406.503,187.146 407,184.5C 407.232,185.737 407.732,186.737 408.5,187.5 Z"/></g>
<g><path style="opacity:1" fill="#f5c04e" d="M 421.5,218.5 C 423.177,226.642 423.844,234.976 423.5,243.5C 422.735,243.923 421.902,244.257 421,244.5C 419.826,243.456 418.659,242.456 417.5,241.5C 412.992,234.823 409.992,227.49 408.5,219.5C 410.403,217.26 411.403,214.594 411.5,211.5C 412.5,211.5 413.5,211.5 414.5,211.5C 414.833,213.5 415.167,215.5 415.5,217.5C 417.621,217.325 419.621,217.659 421.5,218.5 Z"/></g>
<g><path style="opacity:1" fill="#a22e45" d="M 202.5,170.5 C 202.334,178.507 202.5,186.507 203,194.5C 204.739,201.553 206.239,208.719 207.5,216C 208.01,217.826 208.844,217.993 210,216.5C 210.167,215.167 210.333,213.833 210.5,212.5C 209.261,202.675 209.261,193.009 210.5,183.5C 210.1,194.983 211.1,206.316 213.5,217.5C 213.5,218.167 213.5,218.833 213.5,219.5C 211.351,223.567 209.851,223.233 209,218.5C 208.517,219.448 208.351,220.448 208.5,221.5C 205.577,214.827 203.41,207.827 202,200.5C 201.175,190.325 201.342,180.325 202.5,170.5 Z"/></g>
<g><path style="opacity:1" fill="#621f35" d="M 251.5,211.5 C 254.274,212.723 256.941,214.223 259.5,216C 256.339,222.919 252.672,223.086 248.5,216.5C 249.952,215.06 250.952,213.394 251.5,211.5 Z"/></g>
<g><path style="opacity:1" fill="#641a34" d="M 239.5,213.5 C 242.34,214.423 244.674,216.09 246.5,218.5C 243.526,224.747 240.193,224.747 236.5,218.5C 237.763,216.971 238.763,215.305 239.5,213.5 Z"/></g>
<g><path style="opacity:1" fill="#7f974d" d="M 549.5,177.5 C 559.943,203.603 563.276,230.603 559.5,258.5C 560.512,230.927 557.178,203.927 549.5,177.5 Z"/></g>
<g><path style="opacity:1" fill="#afd04c" d="M 561.5,200.5 C 562.437,203.975 563.77,207.309 565.5,210.5C 565.852,222.164 566.185,233.83 566.5,245.5C 566.706,254.059 566.039,262.392 564.5,270.5C 565.4,256.509 565.566,242.509 565,228.5C 564.586,228.043 564.086,227.709 563.5,227.5C 562.833,235.99 562.167,244.324 561.5,252.5C 561.937,236.777 561.27,221.11 559.5,205.5C 559.556,203.36 560.223,201.694 561.5,200.5 Z"/></g>
<g><path style="opacity:1" fill="#a1959c" d="M 319.5,215.5 C 319.5,216.167 319.833,216.5 320.5,216.5C 315.522,219.102 310.189,220.602 304.5,221C 309.348,218.663 314.348,216.83 319.5,215.5 Z"/></g>
<g><path style="opacity:1" fill="#d2a971" d="M 395.5,223.5 C 394.307,223.97 393.64,224.97 393.5,226.5C 394.38,229.802 395.046,233.135 395.5,236.5C 393.192,232.953 392.025,228.953 392,224.5C 390.224,221.059 388.057,217.892 385.5,215C 389.481,216.794 392.814,219.627 395.5,223.5 Z"/></g>
<g><path style="opacity:1" fill="#5da67a" d="M 432.5,198.5 C 432.833,198.5 433.167,198.5 433.5,198.5C 440.223,211.615 445.557,225.282 449.5,239.5C 449.167,239.5 448.833,239.5 448.5,239.5C 443.485,225.788 438.152,212.122 432.5,198.5 Z"/></g>
<g><path style="opacity:1" fill="#bf264b" d="M 177.5,206.5 C 177.5,212.5 177.5,218.5 177.5,224.5C 177.127,229.746 176.46,234.912 175.5,240C 175.167,240.167 174.833,240.333 174.5,240.5C 173.52,239.019 172.353,237.685 171,236.5C 167.406,243.251 165.572,242.918 165.5,235.5C 167.201,230.179 168.534,224.512 169.5,218.5C 171.094,221.985 171.76,225.652 171.5,229.5C 172.552,229.649 173.552,229.483 174.5,229C 172.813,224.794 173.313,220.961 176,217.5C 176.177,213.644 176.677,209.977 177.5,206.5 Z"/></g>
<g><path style="opacity:1" fill="#d1bb9d" d="M 434.5,234.5 C 433.833,233.833 433.167,233.167 432.5,232.5C 432.709,231.078 433.209,229.745 434,228.5C 434.495,230.473 434.662,232.473 434.5,234.5 Z"/></g>
<g><path style="opacity:1" fill="#7b2840" d="M 208.5,222.5 C 209.791,223.542 209.791,224.708 208.5,226C 209.699,227.694 211.032,229.194 212.5,230.5C 208.342,231.498 204.342,232.998 200.5,235C 195.424,236.121 190.424,237.121 185.5,238C 192.167,234.333 198.833,230.667 205.5,227C 207.141,225.871 208.141,224.371 208.5,222.5 Z"/></g>
<g><path style="opacity:1" fill="#531825" d="M 374.5,246.5 C 374.905,242.952 374.405,239.619 373,236.5C 371.98,237.891 371.147,239.391 370.5,241C 366.695,241.209 363.029,241.376 359.5,241.5C 359.198,238.941 359.532,236.607 360.5,234.5C 362.579,241.558 366.079,242.224 371,236.5C 370.949,231.714 368.949,227.714 365,224.5C 364.163,222.179 363.83,219.845 364,217.5C 373.017,225.397 376.517,235.063 374.5,246.5 Z"/></g>
<g><path style="opacity:1" fill="#c69549" d="M 406.5,218.5 C 407.167,218.833 407.833,219.167 408.5,219.5C 409.992,227.49 412.992,234.823 417.5,241.5C 416.504,241.586 415.671,241.252 415,240.5C 414.059,238.273 412.892,236.273 411.5,234.5C 409.523,229.259 407.857,223.926 406.5,218.5 Z"/></g>
<g><path style="opacity:1" fill="#9b7a85" d="M 360.5,234.5 C 359.532,236.607 359.198,238.941 359.5,241.5C 359.5,242.167 359.167,242.5 358.5,242.5C 358.183,239.428 358.516,236.428 359.5,233.5C 360.107,233.624 360.44,233.957 360.5,234.5 Z"/></g>
<g><path style="opacity:1" fill="#ddab65" d="M 421.5,216.5 C 423.526,223.677 425.192,231.011 426.5,238.5C 428.236,236.097 430.236,234.097 432.5,232.5C 433.167,233.167 433.833,233.833 434.5,234.5C 435.544,241.994 435.544,249.327 434.5,256.5C 434.5,255.833 434.5,255.167 434.5,254.5C 434.067,249.167 433.567,243.834 433,238.5C 432.047,236.408 430.714,236.075 429,237.5C 427.716,241.708 426.216,245.708 424.5,249.5C 424.356,247.047 424.022,245.047 423.5,243.5C 423.844,234.976 423.177,226.642 421.5,218.5C 421.5,217.833 421.5,217.167 421.5,216.5 Z"/></g>
<g><path style="opacity:1" fill="#d7af5f" d="M 395.5,236.5 C 399.549,240.975 401.882,246.308 402.5,252.5C 399.1,247.693 396.766,242.36 395.5,236.5 Z"/></g>
<g><path style="opacity:1" fill="#551120" d="M 283.5,235.5 C 286.122,236.811 288.789,238.145 291.5,239.5C 289.025,243.142 286.358,246.642 283.5,250C 277.567,249.522 272.9,246.689 269.5,241.5C 271.793,237.242 274.793,233.576 278.5,230.5C 280.437,231.954 282.103,233.621 283.5,235.5 Z"/></g>
<g><path style="opacity:1" fill="#5d021d" d="M 283.5,235.5 C 283.756,237.776 285.09,238.943 287.5,239C 286.91,240.509 286.244,242.009 285.5,243.5C 283.898,242.45 283.065,243.117 283,245.5C 281.915,246.293 280.748,246.96 279.5,247.5C 272.704,244.863 271.371,240.697 275.5,235C 278.221,234.398 280.887,234.565 283.5,235.5 Z"/></g>
<g><path style="opacity:1" fill="#a62042" d="M 165.5,206.5 C 165.5,216.167 165.5,225.833 165.5,235.5C 165.572,242.918 167.406,243.251 171,236.5C 172.353,237.685 173.52,239.019 174.5,240.5C 174.833,240.333 175.167,240.167 175.5,240C 176.46,234.912 177.127,229.746 177.5,224.5C 177.833,224.5 178.167,224.5 178.5,224.5C 178.739,228.842 179.073,233.176 179.5,237.5C 179.177,244.022 179.51,250.355 180.5,256.5C 177.875,257.813 175.375,259.48 173,261.5C 169.44,270.699 168.94,270.533 171.5,261C 171.333,260.5 171.167,260 171,259.5C 170.692,260.308 170.192,260.975 169.5,261.5C 167.982,256.42 166.649,251.42 165.5,246.5C 164.167,233.167 164.167,219.833 165.5,206.5 Z"/></g>
<g><path style="opacity:1" fill="#d2b273" d="M 408.5,233.5 C 409.151,234.091 409.818,234.757 410.5,235.5C 411.107,235.376 411.44,235.043 411.5,234.5C 412.892,236.273 414.059,238.273 415,240.5C 415.671,241.252 416.504,241.586 417.5,241.5C 418.659,242.456 419.826,243.456 421,244.5C 421.902,244.257 422.735,243.923 423.5,243.5C 424.022,245.047 424.356,247.047 424.5,249.5C 424.586,250.496 424.252,251.329 423.5,252C 421.098,252.814 418.765,252.647 416.5,251.5C 414.763,244.904 412.096,238.904 408.5,233.5 Z"/></g>
<g><path style="opacity:1" fill="#9b3f53" d="M 179.5,237.5 C 180.495,245.371 181.495,253.371 182.5,261.5C 181.686,259.369 181.186,257.036 181,254.5C 180.536,255.094 180.369,255.761 180.5,256.5C 179.51,250.355 179.177,244.022 179.5,237.5 Z"/></g>
<g><path style="opacity:1" fill="#791029" d="M 213.5,219.5 C 214.497,219.47 215.164,219.97 215.5,221C 216.149,224.875 216.982,228.709 218,232.5C 218.671,233.252 219.504,233.586 220.5,233.5C 224.615,240.067 227.949,247.067 230.5,254.5C 229.778,254.918 229.278,255.584 229,256.5C 228.124,254.365 226.624,253.031 224.5,252.5C 224.144,250.81 223.144,249.81 221.5,249.5C 220.686,251.631 220.186,253.964 220,256.5C 217.697,256.409 216.03,257.743 215,260.5C 213.56,259.07 213.226,257.403 214,255.5C 218.008,251.423 219.508,246.757 218.5,241.5C 216.43,237.792 214.43,234.125 212.5,230.5C 211.032,229.194 209.699,227.694 208.5,226C 209.791,224.708 209.791,223.542 208.5,222.5C 208.5,222.167 208.5,221.833 208.5,221.5C 208.351,220.448 208.517,219.448 209,218.5C 209.851,223.233 211.351,223.567 213.5,219.5 Z"/></g>
<g><path style="opacity:1" fill="#4cad6c" d="M 448.5,239.5 C 448.833,239.5 449.167,239.5 449.5,239.5C 452.114,247.292 453.781,255.292 454.5,263.5C 453.686,261.369 453.186,259.036 453,256.5C 452.828,263.013 452.328,269.347 451.5,275.5C 452.161,263.328 451.161,251.328 448.5,239.5 Z"/></g>
<g><path style="opacity:1" fill="#edca73" d="M 394.5,252.5 C 392.883,254.121 391.716,256.121 391,258.5C 390.313,264.204 390.479,269.87 391.5,275.5C 390.883,275.389 390.383,275.056 390,274.5C 389.819,271.305 389.319,268.305 388.5,265.5C 388.802,259.344 389.302,253.344 390,247.5C 391.707,249.037 393.207,250.704 394.5,252.5 Z"/></g>
<g><path style="opacity:1" fill="#f6cd59" d="M 395.5,223.5 C 400.381,226.039 404.715,229.372 408.5,233.5C 412.096,238.904 414.763,244.904 416.5,251.5C 418.765,252.647 421.098,252.814 423.5,252C 424.252,251.329 424.586,250.496 424.5,249.5C 426.216,245.708 427.716,241.708 429,237.5C 430.714,236.075 432.047,236.408 433,238.5C 433.567,243.834 434.067,249.167 434.5,254.5C 431.148,256.458 429.648,259.458 430,263.5C 424.335,268.358 421.001,267.025 420,259.5C 418.605,260.815 417.605,260.481 417,258.5C 415.446,261.102 413.28,262.269 410.5,262C 407.199,259.143 404.532,255.977 402.5,252.5C 401.882,246.308 399.549,240.975 395.5,236.5C 395.046,233.135 394.38,229.802 393.5,226.5C 393.64,224.97 394.307,223.97 395.5,223.5 Z"/></g>
<g><path style="opacity:1" fill="#bedf4c" d="M 564.5,270.5 C 563.6,279.9 562.266,289.234 560.5,298.5C 557.228,305.573 554.561,312.906 552.5,320.5C 552.5,320.833 552.5,321.167 552.5,321.5C 551.272,322.306 550.272,323.306 549.5,324.5C 550.151,322.174 550.818,319.841 551.5,317.5C 551.167,316.5 550.833,315.5 550.5,314.5C 548.699,316.875 547.032,319.208 545.5,321.5C 546.905,317.615 547.905,313.615 548.5,309.5C 549.375,307.432 550.541,305.432 552,303.5C 553.457,293.971 555.624,284.638 558.5,275.5C 560.635,268.114 561.635,260.448 561.5,252.5C 562.167,244.324 562.833,235.99 563.5,227.5C 564.086,227.709 564.586,228.043 565,228.5C 565.566,242.509 565.4,256.509 564.5,270.5 Z"/></g>
<g><path style="opacity:1" fill="#d2b267" d="M 395.5,252.5 C 397.846,253.523 400.179,254.523 402.5,255.5C 402.5,254.5 402.5,253.5 402.5,252.5C 404.532,255.977 407.199,259.143 410.5,262C 413.28,262.269 415.446,261.102 417,258.5C 417.605,260.481 418.605,260.815 420,259.5C 421.001,267.025 424.335,268.358 430,263.5C 429.648,259.458 431.148,256.458 434.5,254.5C 434.5,255.167 434.5,255.833 434.5,256.5C 433.393,260.048 431.726,263.381 429.5,266.5C 431.045,267.452 432.712,267.785 434.5,267.5C 433.525,275.8 429.192,281.467 421.5,284.5C 424.103,281.671 426.936,279.004 430,276.5C 430.151,273.881 430.985,271.547 432.5,269.5C 429.914,268.52 427.247,268.187 424.5,268.5C 422.271,267.945 420.605,266.611 419.5,264.5C 418.281,265.263 417.281,266.263 416.5,267.5C 416.003,265.784 415.669,264.117 415.5,262.5C 412.589,263.983 409.922,263.65 407.5,261.5C 408.66,265.712 408.66,270.212 407.5,275C 407.833,275.5 408.167,276 408.5,276.5C 409.604,274.611 410.937,272.945 412.5,271.5C 413.731,272.651 413.731,273.817 412.5,275C 413.094,275.464 413.761,275.631 414.5,275.5C 411.481,277.337 408.148,277.837 404.5,277C 407.129,271.151 406.962,265.318 404,259.5C 401.884,258.31 399.884,256.977 398,255.5C 397.667,255.833 397.333,256.167 397,256.5C 396.59,255.099 396.09,253.766 395.5,252.5 Z"/></g>
<g><path style="opacity:1" fill="#a4c551" d="M 547.5,157.5 C 550.35,162.038 553.017,166.704 555.5,171.5C 555.5,171.833 555.5,172.167 555.5,172.5C 555.503,176.524 555.836,180.524 556.5,184.5C 558.798,189.576 560.465,194.91 561.5,200.5C 560.223,201.694 559.556,203.36 559.5,205.5C 561.27,221.11 561.937,236.777 561.5,252.5C 561.635,260.448 560.635,268.114 558.5,275.5C 558.907,269.839 559.24,264.172 559.5,258.5C 563.276,230.603 559.943,203.603 549.5,177.5C 548.285,170.857 546.285,164.523 543.5,158.5C 543.694,153.597 545.027,153.264 547.5,157.5 Z"/></g>
<g><path style="opacity:1" fill="#95a658" d="M 23.5,263.5 C 24.9323,267.399 25.9323,271.399 26.5,275.5C 27.2436,279.119 27.577,282.785 27.5,286.5C 24.9623,279.165 23.629,271.498 23.5,263.5 Z"/></g>
<g><path style="opacity:1" fill="#bcdd49" d="M 33.5,275.5 C 33.7419,283.281 34.7419,290.948 36.5,298.5C 34.6604,294.786 33.3271,290.786 32.5,286.5C 32.1667,287.667 31.8333,288.833 31.5,290C 32.4932,294.797 33.1598,299.63 33.5,304.5C 32.3179,298.238 30.3179,292.238 27.5,286.5C 27.577,282.785 27.2436,279.119 26.5,275.5C 26.108,266.981 25.4414,258.481 24.5,250C 24.9557,242.164 25.4557,234.331 26,226.5C 26.3599,224.392 27.0266,222.392 28,220.5C 28.3333,232.5 28.6667,244.5 29,256.5C 29.3862,263.215 30.8862,269.548 33.5,275.5 Z"/></g>
<g><path style="opacity:1" fill="#881334" d="M 165.5,246.5 C 166.649,251.42 167.982,256.42 169.5,261.5C 170.192,260.975 170.692,260.308 171,259.5C 171.167,260 171.333,260.5 171.5,261C 168.94,270.533 169.44,270.699 173,261.5C 175.375,259.48 177.875,257.813 180.5,256.5C 180.369,255.761 180.536,255.094 181,254.5C 181.186,257.036 181.686,259.369 182.5,261.5C 182.5,264.5 182.5,267.5 182.5,270.5C 182.785,272.288 182.452,273.955 181.5,275.5C 180.833,273.5 180.167,271.5 179.5,269.5C 178.914,269.709 178.414,270.043 178,270.5C 175.952,276.83 174.118,283.163 172.5,289.5C 172.144,284.569 171.144,279.902 169.5,275.5C 169.435,272.572 168.768,269.905 167.5,267.5C 166.541,260.532 165.874,253.532 165.5,246.5 Z"/></g>
<g><path style="opacity:1" fill="#94a951" d="M 565.5,210.5 C 569.587,234.384 569.42,258.384 565,282.5C 563.801,288.044 562.301,293.377 560.5,298.5C 562.266,289.234 563.6,279.9 564.5,270.5C 566.039,262.392 566.706,254.059 566.5,245.5C 566.185,233.83 565.852,222.164 565.5,210.5 Z"/></g>
<g><path style="opacity:1" fill="#f9e678" d="M 381.5,270.5 C 389.619,277.075 389.285,283.408 380.5,289.5C 376.905,291.97 372.905,292.97 368.5,292.5C 367.178,292.67 366.011,292.337 365,291.5C 364.689,289.444 364.189,287.444 363.5,285.5C 365.171,283.49 365.838,281.157 365.5,278.5C 367.924,274.748 371.257,272.081 375.5,270.5C 377.228,264.182 379.228,264.182 381.5,270.5 Z"/></g>
<g><path style="opacity:1" fill="#d2bc7a" d="M 388.5,265.5 C 389.319,268.305 389.819,271.305 390,274.5C 390.383,275.056 390.883,275.389 391.5,275.5C 392.29,276.794 393.29,277.961 394.5,279C 397.365,279.183 400.031,279.683 402.5,280.5C 400.167,280.5 397.833,280.5 395.5,280.5C 393.606,279.952 391.94,278.952 390.5,277.5C 389.515,279.772 388.681,282.105 388,284.5C 386.315,286.017 384.815,287.684 383.5,289.5C 384.425,290.562 385.425,290.562 386.5,289.5C 387.492,289.328 388.158,289.662 388.5,290.5C 385.303,293.484 382.636,293.151 380.5,289.5C 389.285,283.408 389.619,277.075 381.5,270.5C 383.815,271.327 385.815,272.66 387.5,274.5C 388.484,271.572 388.817,268.572 388.5,265.5 Z"/></g>
<g><path style="opacity:1" fill="#f5dc66" d="M 394.5,252.5 C 394.833,252.5 395.167,252.5 395.5,252.5C 396.09,253.766 396.59,255.099 397,256.5C 397.333,256.167 397.667,255.833 398,255.5C 399.884,256.977 401.884,258.31 404,259.5C 406.962,265.318 407.129,271.151 404.5,277C 408.148,277.837 411.481,277.337 414.5,275.5C 416.697,274.155 419.03,272.989 421.5,272C 422.71,270.961 423.71,269.794 424.5,268.5C 427.247,268.187 429.914,268.52 432.5,269.5C 430.985,271.547 430.151,273.881 430,276.5C 426.936,279.004 424.103,281.671 421.5,284.5C 417.168,285.097 412.835,285.263 408.5,285C 406.893,283.951 406.227,282.451 406.5,280.5C 405.167,280.5 403.833,280.5 402.5,280.5C 400.031,279.683 397.365,279.183 394.5,279C 393.29,277.961 392.29,276.794 391.5,275.5C 390.479,269.87 390.313,264.204 391,258.5C 391.716,256.121 392.883,254.121 394.5,252.5 Z"/></g>
<g><path style="opacity:1" fill="#652030" d="M 182.5,261.5 C 183.898,268.987 185.065,276.654 186,284.5C 187.807,288.756 189.307,293.089 190.5,297.5C 192.167,297.5 193.833,297.5 195.5,297.5C 192.993,298.898 190.66,298.564 188.5,296.5C 187.483,292.947 185.983,289.614 184,286.5C 183.827,280.984 183.327,275.651 182.5,270.5C 182.5,267.5 182.5,264.5 182.5,261.5 Z"/></g>
<g><path style="opacity:1" fill="#d1cfb6" d="M 395.5,280.5 C 397.833,280.5 400.167,280.5 402.5,280.5C 402.5,281.167 402.5,281.833 402.5,282.5C 398.042,285.33 394.042,287.996 390.5,290.5C 389.833,291.833 389.167,291.833 388.5,290.5C 388.158,289.662 387.492,289.328 386.5,289.5C 391.367,287.067 396.367,284.567 401.5,282C 399.292,281.809 397.292,281.309 395.5,280.5 Z"/></g>
<g><path style="opacity:1" fill="#c9b56d" d="M 402.5,280.5 C 403.833,280.5 405.167,280.5 406.5,280.5C 406.227,282.451 406.893,283.951 408.5,285C 412.835,285.263 417.168,285.097 421.5,284.5C 419.469,284.972 417.802,285.972 416.5,287.5C 413.833,287.5 411.167,287.5 408.5,287.5C 406.204,286.181 404.204,284.514 402.5,282.5C 402.5,281.833 402.5,281.167 402.5,280.5 Z"/></g>
<g><path style="opacity:1" fill="#f9e77e" d="M 357.5,286.5 C 357.5,289.167 357.5,291.833 357.5,294.5C 352.355,297.909 347.021,301.076 341.5,304C 337.179,304.499 332.846,304.666 328.5,304.5C 328.5,301.833 328.5,299.167 328.5,296.5C 332.021,289.487 337.687,285.321 345.5,284C 348.822,282.428 351.656,280.261 354,277.5C 353.913,281.08 355.08,284.08 357.5,286.5 Z"/></g>
<g><path style="opacity:1" fill="#f1dc79" d="M 408.5,287.5 C 411.167,287.5 413.833,287.5 416.5,287.5C 420.122,288.102 420.455,289.602 417.5,292C 410.478,295.286 403.145,297.452 395.5,298.5C 389.441,299.726 383.441,299.559 377.5,298C 376.833,296.667 376.167,295.333 375.5,294C 372.964,293.814 370.631,293.314 368.5,292.5C 372.905,292.97 376.905,291.97 380.5,289.5C 382.636,293.151 385.303,293.484 388.5,290.5C 389.167,291.833 389.833,291.833 390.5,290.5C 396.583,289.259 402.583,288.259 408.5,287.5 Z"/></g>
<g><path style="opacity:1" fill="#caea4e" d="M 36.5,298.5 C 37.5182,301.335 39.0182,304.002 41,306.5C 41.2969,309.914 41.9635,313.247 43,316.5C 47.8205,325.141 51.8205,334.141 55,343.5C 56.0113,344.337 57.1779,344.67 58.5,344.5C 58.9295,348.677 59.9295,352.677 61.5,356.5C 60.5,356.5 59.5,356.5 58.5,356.5C 55.2724,351.061 51.7724,345.727 48,340.5C 47.3691,337.607 46.5358,334.774 45.5,332C 42.1549,326.872 39.1549,321.706 36.5,316.5C 35.5,312.5 34.5,308.5 33.5,304.5C 33.1598,299.63 32.4932,294.797 31.5,290C 31.8333,288.833 32.1667,287.667 32.5,286.5C 33.3271,290.786 34.6604,294.786 36.5,298.5 Z"/></g>
<g><path style="opacity:1" fill="#d8c682" d="M 365.5,278.5 C 365.838,281.157 365.171,283.49 363.5,285.5C 364.189,287.444 364.689,289.444 365,291.5C 366.011,292.337 367.178,292.67 368.5,292.5C 370.631,293.314 372.964,293.814 375.5,294C 376.167,295.333 376.833,296.667 377.5,298C 383.441,299.559 389.441,299.726 395.5,298.5C 393.631,299.165 391.631,299.831 389.5,300.5C 390.714,302.069 392.381,302.902 394.5,303C 392.655,304.128 390.655,304.628 388.5,304.5C 382.25,302.541 375.584,301.874 368.5,302.5C 371.689,301.834 375.023,301.167 378.5,300.5C 376.244,299.579 375.244,297.912 375.5,295.5C 369.562,295.72 364.562,293.72 360.5,289.5C 359.675,291.36 358.675,293.026 357.5,294.5C 357.5,291.833 357.5,289.167 357.5,286.5C 358.708,287.234 360.041,287.567 361.5,287.5C 362.452,284.303 363.785,281.303 365.5,278.5 Z"/></g>
<g><path style="opacity:1" fill="#a1b767" d="M 559.5,258.5 C 559.24,264.172 558.907,269.839 558.5,275.5C 555.624,284.638 553.457,293.971 552,303.5C 550.541,305.432 549.375,307.432 548.5,309.5C 550.354,301.102 552.52,292.769 555,284.5C 556.471,275.69 557.971,267.023 559.5,258.5 Z"/></g>
<g><path style="opacity:1" fill="#5d0a1e" d="M 218.5,241.5 C 219.508,246.757 218.008,251.423 214,255.5C 213.226,257.403 213.56,259.07 215,260.5C 216.03,257.743 217.697,256.409 220,256.5C 220.186,253.964 220.686,251.631 221.5,249.5C 223.502,258.019 224.002,266.686 223,275.5C 219.551,285.065 215.551,294.399 211,303.5C 205.001,313.75 196.168,317.917 184.5,316C 182.416,315.303 180.749,314.136 179.5,312.5C 178.63,310.968 178.964,309.468 180.5,308C 177.096,306.137 176.929,304.303 180,302.5C 180.192,300.423 180.692,298.423 181.5,296.5C 183.246,298.854 185.579,299.854 188.5,299.5C 188.5,298.5 188.5,297.5 188.5,296.5C 190.66,298.564 192.993,298.898 195.5,297.5C 210.785,294.069 216.951,284.735 214,269.5C 213.522,265.568 212.355,261.901 210.5,258.5C 213.454,252.927 216.121,247.26 218.5,241.5 Z"/></g>
<g><path style="opacity:1" fill="#6e0923" d="M 182.5,270.5 C 183.327,275.651 183.827,280.984 184,286.5C 185.983,289.614 187.483,292.947 188.5,296.5C 188.5,297.5 188.5,298.5 188.5,299.5C 185.579,299.854 183.246,298.854 181.5,296.5C 180.692,298.423 180.192,300.423 180,302.5C 176.929,304.303 177.096,306.137 180.5,308C 178.964,309.468 178.63,310.968 179.5,312.5C 178.391,312.557 177.391,312.89 176.5,313.5C 175.722,312.844 175.056,312.011 174.5,311C 175.309,309.216 175.976,307.383 176.5,305.5C 174.539,300.323 173.206,294.99 172.5,289.5C 174.118,283.163 175.952,276.83 178,270.5C 178.414,270.043 178.914,269.709 179.5,269.5C 180.167,271.5 180.833,273.5 181.5,275.5C 182.452,273.955 182.785,272.288 182.5,270.5 Z"/></g>
<g><path style="opacity:1" fill="#f7dd80" d="M 323.5,298.5 C 322.638,303.211 320.971,307.544 318.5,311.5C 317.448,311.351 316.448,311.517 315.5,312C 309.875,318.405 303.042,321.571 295,321.5C 294.502,318.183 294.335,314.85 294.5,311.5C 298.624,302.872 305.291,297.372 314.5,295C 316.017,293.315 317.684,291.815 319.5,290.5C 320.308,292.423 320.808,294.423 321,296.5C 321.708,297.381 322.542,298.047 323.5,298.5 Z"/></g>
<g><path style="opacity:1" fill="#d0bd69" d="M 357.5,294.5 C 355.36,297.061 353.027,299.395 350.5,301.5C 350.918,302.222 351.584,302.722 352.5,303C 348.808,304.515 345.141,306.015 341.5,307.5C 341.082,306.778 340.416,306.278 339.5,306C 335.644,305.823 331.977,305.323 328.5,304.5C 332.846,304.666 337.179,304.499 341.5,304C 347.021,301.076 352.355,297.909 357.5,294.5 Z"/></g>
<g><path style="opacity:1" fill="#93a74c" d="M 560.5,298.5 C 559.156,306.441 556.489,313.774 552.5,320.5C 554.561,312.906 557.228,305.573 560.5,298.5 Z"/></g>
<g><path style="opacity:1" fill="#5a0b20" d="M 374.5,246.5 C 373.71,247.794 372.71,248.961 371.5,250C 368.764,250.422 366.098,250.422 363.5,250C 359.302,256.844 353.136,260.344 345,260.5C 340.259,259.961 335.759,258.627 331.5,256.5C 331.258,266.627 329.091,276.294 325,285.5C 320.632,288.42 315.799,289.253 310.5,288C 305.468,285.815 300.468,283.648 295.5,281.5C 295.732,287.306 294.232,292.639 291,297.5C 287.273,305.123 282.439,311.956 276.5,318C 269.108,323.859 260.775,325.859 251.5,324C 245.608,321.108 241.441,316.608 239,310.5C 236.518,299.308 235.184,287.974 235,276.5C 231.76,268.357 228.26,260.357 224.5,252.5C 226.624,253.031 228.124,254.365 229,256.5C 229.278,255.584 229.778,254.918 230.5,254.5C 235.31,266.001 238.81,278.001 241,290.5C 244.377,298.207 249.544,304.374 256.5,309C 267.148,309.45 276.314,305.95 284,298.5C 286.269,290.867 285.436,283.533 281.5,276.5C 283.866,271.609 286.866,267.109 290.5,263C 291.167,262.333 291.833,262.333 292.5,263C 296.544,268.711 301.544,273.378 307.5,277C 314.075,278.962 318.575,276.795 321,270.5C 322.987,263.578 324.654,256.578 326,249.5C 326.765,246.804 327.932,244.304 329.5,242C 330.944,241.219 332.277,241.386 333.5,242.5C 339.095,250.926 346.428,252.76 355.5,248C 357.16,246.512 358.16,244.679 358.5,242.5C 359.167,242.5 359.5,242.167 359.5,241.5C 363.029,241.376 366.695,241.209 370.5,241C 371.147,239.391 371.98,237.891 373,236.5C 374.405,239.619 374.905,242.952 374.5,246.5 Z"/></g>
<g><path style="opacity:1" fill="#ceb87e" d="M 328.5,296.5 C 328.5,299.167 328.5,301.833 328.5,304.5C 327.288,303.77 326.288,302.77 325.5,301.5C 323.64,305.24 321.307,308.574 318.5,311.5C 320.971,307.544 322.638,303.211 323.5,298.5C 325.876,299.817 327.543,299.15 328.5,296.5 Z"/></g>
<g><path style="opacity:1" fill="#f5e185" d="M 350.5,301.5 C 355.176,302.035 359.843,302.701 364.5,303.5C 366.045,303.489 367.378,303.156 368.5,302.5C 375.584,301.874 382.25,302.541 388.5,304.5C 378.018,308.627 367.018,310.627 355.5,310.5C 351.519,311.021 347.519,311.354 343.5,311.5C 341.824,310.817 341.157,309.483 341.5,307.5C 345.141,306.015 348.808,304.515 352.5,303C 351.584,302.722 350.918,302.222 350.5,301.5 Z"/></g>
<g><path style="opacity:1" fill="#a9c164" d="M 548.5,309.5 C 547.905,313.615 546.905,317.615 545.5,321.5C 542.093,328.15 538.76,334.983 535.5,342C 534.87,343.31 533.87,344.144 532.5,344.5C 538.145,332.884 543.478,321.217 548.5,309.5 Z"/></g>
<g><path style="opacity:1" fill="#97a850" d="M 27.5,286.5 C 30.3179,292.238 32.3179,298.238 33.5,304.5C 34.5,308.5 35.5,312.5 36.5,316.5C 31.9665,307.049 28.9665,297.049 27.5,286.5 Z"/></g>
<g><path style="opacity:1" fill="#90293e" d="M 167.5,267.5 C 168.768,269.905 169.435,272.572 169.5,275.5C 168.596,274.791 168.263,273.791 168.5,272.5C 154.181,277.826 140.847,284.993 128.5,294C 117.029,303.268 109.029,314.768 104.5,328.5C 104.5,326.5 104.5,324.5 104.5,322.5C 103.5,322.5 102.5,322.5 101.5,322.5C 110.542,305.289 123.542,291.789 140.5,282C 148.814,277.343 157.48,273.509 166.5,270.5C 167.386,269.675 167.719,268.675 167.5,267.5 Z"/></g>
<g><path style="opacity:1" fill="#dac78b" d="M 355.5,310.5 C 354.659,312.379 354.325,314.379 354.5,316.5C 352.194,316.993 349.861,317.326 347.5,317.5C 355.634,314.404 355.3,313.404 346.5,314.5C 346.611,313.883 346.944,313.383 347.5,313C 345.942,312.79 344.609,312.29 343.5,311.5C 347.519,311.354 351.519,311.021 355.5,310.5 Z"/></g>
<g><path style="opacity:1" fill="#f5de8a" d="M 347.5,317.5 C 341.085,320.122 334.419,322.122 327.5,323.5C 324.956,323.896 322.789,323.229 321,321.5C 318.931,322.264 316.764,322.764 314.5,323C 315.938,323.219 317.271,323.719 318.5,324.5C 314.893,325.489 311.226,325.823 307.5,325.5C 309.745,321.181 313.412,318.514 318.5,317.5C 322.103,317.298 325.436,316.298 328.5,314.5C 334.457,315.042 340.457,315.042 346.5,314.5C 355.3,313.404 355.634,314.404 347.5,317.5 Z"/></g>
<g><path style="opacity:1" fill="#5a0e20" d="M 169.5,275.5 C 171.144,279.902 172.144,284.569 172.5,289.5C 173.206,294.99 174.539,300.323 176.5,305.5C 175.976,307.383 175.309,309.216 174.5,311C 175.056,312.011 175.722,312.844 176.5,313.5C 172.313,335.566 161.313,353.233 143.5,366.5C 143.632,363.203 145.298,361.537 148.5,361.5C 148.286,359.856 148.62,358.356 149.5,357C 148.376,356.751 147.376,356.251 146.5,355.5C 148.284,352.348 150.784,351.348 154,352.5C 155.191,349.466 157.358,347.799 160.5,347.5C 160.08,345.326 160.08,343.326 160.5,341.5C 156.5,340.167 155.167,341.5 156.5,345.5C 155.696,347.729 154.363,348.062 152.5,346.5C 146.901,349.883 141.067,352.883 135,355.5C 129.025,356.789 123.191,356.789 117.5,355.5C 122.179,355.666 126.845,355.499 131.5,355C 141.235,351.043 149.735,345.209 157,337.5C 165.03,328.278 170.864,317.778 174.5,306C 171.339,296.083 169.673,285.917 169.5,275.5 Z"/></g>
<g><path style="opacity:1" fill="#2eae4c" d="M 454.5,263.5 C 455.784,276.936 453.617,289.936 448,302.5C 445.791,304.373 443.958,306.54 442.5,309C 440.5,310.333 438.5,311.667 436.5,313C 426.102,317.643 415.435,321.476 404.5,324.5C 410.319,325.167 415.986,325.833 421.5,326.5C 416.706,325.903 412.373,326.57 408.5,328.5C 394.732,326.892 381.065,327.225 367.5,329.5C 363.298,329.817 359.298,329.483 355.5,328.5C 368.627,326.232 381.96,324.398 395.5,323C 409.576,320.309 422.909,315.642 435.5,309C 445.726,300.15 451.059,288.984 451.5,275.5C 452.328,269.347 452.828,263.013 453,256.5C 453.186,259.036 453.686,261.369 454.5,263.5 Z"/></g>
<g><path style="opacity:1" fill="#acc467" d="M 33.5,275.5 C 38.8646,299.595 47.1979,322.595 58.5,344.5C 57.1779,344.67 56.0113,344.337 55,343.5C 51.8205,334.141 47.8205,325.141 43,316.5C 41.9635,313.247 41.2969,309.914 41,306.5C 39.0182,304.002 37.5182,301.335 36.5,298.5C 34.7419,290.948 33.7419,283.281 33.5,275.5 Z"/></g>
<g><path style="opacity:1" fill="#dbc685" d="M 294.5,311.5 C 294.335,314.85 294.502,318.183 295,321.5C 303.042,321.571 309.875,318.405 315.5,312C 316.448,311.517 317.448,311.351 318.5,311.5C 317.2,312.827 315.867,314.16 314.5,315.5C 315.391,316.59 316.391,316.59 317.5,315.5C 318.298,315.957 318.631,316.624 318.5,317.5C 313.412,318.514 309.745,321.181 307.5,325.5C 311.226,325.823 314.893,325.489 318.5,324.5C 317.271,323.719 315.938,323.219 314.5,323C 316.764,322.764 318.931,322.264 321,321.5C 322.789,323.229 324.956,323.896 327.5,323.5C 320.222,326.353 312.555,327.686 304.5,327.5C 304.719,326.325 304.386,325.325 303.5,324.5C 292.833,325.191 289.833,320.858 294.5,311.5 Z"/></g>
<g><path style="opacity:1" fill="#90a642" d="M 552.5,321.5 C 551.231,325.408 549.565,329.075 547.5,332.5C 547.963,329.779 548.629,327.112 549.5,324.5C 550.272,323.306 551.272,322.306 552.5,321.5 Z"/></g>
<g><path style="opacity:1" fill="#5bb079" d="M 355.5,328.5 C 359.298,329.483 363.298,329.817 367.5,329.5C 362.015,330.652 356.349,330.818 350.5,330C 352.025,328.991 353.692,328.491 355.5,328.5 Z"/></g>
<g><path style="opacity:1" fill="#a1c37a" d="M 385.5,329.5 C 387.048,329.821 387.715,330.821 387.5,332.5C 384.752,332.598 384.086,331.598 385.5,329.5 Z"/></g>
<g><path style="opacity:1" fill="#20ad40" d="M 421.5,326.5 C 440.045,328.719 457.712,333.886 474.5,342C 477.94,344.042 480.94,346.542 483.5,349.5C 480.807,348.448 478.14,347.448 475.5,346.5C 475.5,348.167 475.5,349.833 475.5,351.5C 459.276,340.233 441.276,333.067 421.5,330C 417.152,329.535 412.819,329.035 408.5,328.5C 412.373,326.57 416.706,325.903 421.5,326.5 Z"/></g>
<g><path style="opacity:1" fill="#adc296" d="M 320.5,338.5 C 324.246,339.698 324.079,341.031 320,342.5C 319.5,342.167 319,341.833 318.5,341.5C 319.193,340.482 319.859,339.482 320.5,338.5 Z"/></g>
<g><path style="opacity:1" fill="#8fa96a" d="M 333.5,339.5 C 336.012,340.216 336.012,341.216 333.5,342.5C 332.438,341.575 332.438,340.575 333.5,339.5 Z"/></g>
<g><path style="opacity:1" fill="#8fb167" d="M 385.5,339.5 C 387.225,340.278 388.891,340.611 390.5,340.5C 388.878,342.623 386.878,342.956 384.5,341.5C 384.863,340.817 385.196,340.15 385.5,339.5 Z"/></g>
<g><path style="opacity:1" fill="#adcd98" d="M 419.5,339.5 C 421.355,339.272 422.188,339.939 422,341.5C 418.877,343.098 418.044,342.431 419.5,339.5 Z"/></g>
<g><path style="opacity:1" fill="#851029" d="M 101.5,322.5 C 102.5,322.5 103.5,322.5 104.5,322.5C 104.5,324.5 104.5,326.5 104.5,328.5C 104.768,330.099 104.434,331.432 103.5,332.5C 102.539,338.733 102.539,344.899 103.5,351C 102.572,353.688 101.239,356.188 99.5,358.5C 98.7492,357.624 98.2492,356.624 98,355.5C 97.5004,348.842 97.3337,342.175 97.5,335.5C 97.6538,330.711 98.9871,326.378 101.5,322.5 Z"/></g>
<g><path style="opacity:1" fill="#7bad46" d="M 435.5,340.5 C 436.568,339.566 437.901,339.232 439.5,339.5C 439.247,343.04 438.581,346.373 437.5,349.5C 438.055,345.988 437.388,342.988 435.5,340.5 Z"/></g>
<g><path style="opacity:1" fill="#93bd67" d="M 305.5,340.5 C 306.568,339.566 307.901,339.232 309.5,339.5C 309.785,342.829 309.118,345.829 307.5,348.5C 307.833,345.833 308.167,343.167 308.5,340.5C 307.5,340.5 306.5,340.5 305.5,340.5 Z"/></g>
<g><path style="opacity:1" fill="#83ac52" d="M 405.5,341.5 C 407.604,341.201 409.604,341.534 411.5,342.5C 410.5,342.833 409.5,343.167 408.5,343.5C 406.97,343.36 405.97,342.693 405.5,341.5 Z"/></g>
<g><path style="opacity:1" fill="#81a852" d="M 288.5,342.5 C 290.924,342.192 293.257,342.526 295.5,343.5C 294.333,343.833 293.167,344.167 292,344.5C 290.319,344.392 289.152,343.725 288.5,342.5 Z"/></g>
<g><path style="opacity:1" fill="#64ae0a" d="M 435.5,340.5 C 437.388,342.988 438.055,345.988 437.5,349.5C 437.5,350.167 437.5,350.833 437.5,351.5C 435.586,348.316 434.92,344.649 435.5,340.5 Z"/></g>
<g><path style="opacity:1" fill="#59091d" d="M 217.5,334.5 C 221.767,338.428 226.1,342.428 230.5,346.5C 228.623,351.528 225.789,355.861 222,359.5C 217.01,357.009 213.177,353.343 210.5,348.5C 212.842,343.816 215.175,339.15 217.5,334.5 Z"/></g>
<g><path style="opacity:1" fill="#6aa727" d="M 365.5,339.5 C 366.5,339.5 367.5,339.5 368.5,339.5C 368.051,344.863 367.384,350.196 366.5,355.5C 365.5,355.5 364.5,355.5 363.5,355.5C 363.906,350.091 364.573,344.758 365.5,339.5 Z"/></g>
<g><path style="opacity:1" fill="#7faf44" d="M 396.5,347.5 C 397.5,347.5 398.5,347.5 399.5,347.5C 399.216,349.415 399.549,351.081 400.5,352.5C 402.167,352.5 403.833,352.5 405.5,352.5C 400.1,353.187 394.6,353.854 389,354.5C 387.698,353.915 386.531,353.249 385.5,352.5C 388.68,352.824 389.847,351.49 389,348.5C 386.391,347.091 384.558,347.758 383.5,350.5C 382.833,351.167 382.167,351.833 381.5,352.5C 381.954,346.213 385.121,344.213 391,346.5C 391.495,348.473 391.662,350.473 391.5,352.5C 393.167,352.5 394.833,352.5 396.5,352.5C 396.5,350.833 396.5,349.167 396.5,347.5 Z"/></g>
<g><path style="opacity:1" fill="#6da929" d="M 354.5,355.5 C 353.167,355.5 352.5,354.833 352.5,353.5C 352.998,348.848 353.331,344.181 353.5,339.5C 354.833,339.5 356.167,339.5 357.5,339.5C 357.129,345.076 356.129,350.409 354.5,355.5 Z"/></g>
<g><path style="opacity:1" fill="#03b430" d="M 483.5,349.5 C 484.878,351.96 485.878,354.626 486.5,357.5C 486.167,358.167 485.833,358.833 485.5,359.5C 483.844,357.54 482.177,355.54 480.5,353.5C 478.978,352.438 477.312,351.771 475.5,351.5C 475.5,349.833 475.5,348.167 475.5,346.5C 478.14,347.448 480.807,348.448 483.5,349.5 Z"/></g>
<g><path style="opacity:1" fill="#9aae45" d="M 36.5,316.5 C 39.1549,321.706 42.1549,326.872 45.5,332C 46.5358,334.774 47.3691,337.607 48,340.5C 51.7724,345.727 55.2724,351.061 58.5,356.5C 59.1667,358.167 59.8333,359.833 60.5,361.5C 49.8827,348.055 41.8827,333.055 36.5,316.5 Z"/></g>
<g><path style="opacity:1" fill="#c3d8aa" d="M 396.5,347.5 C 397.568,346.566 398.901,346.232 400.5,346.5C 400.5,348.5 400.5,350.5 400.5,352.5C 399.549,351.081 399.216,349.415 399.5,347.5C 398.5,347.5 397.5,347.5 396.5,347.5 Z"/></g>
<g><path style="opacity:1" fill="#6da728" d="M 305.5,340.5 C 306.5,340.5 307.5,340.5 308.5,340.5C 308.167,343.167 307.833,345.833 307.5,348.5C 307.5,350.833 307.5,353.167 307.5,355.5C 306.167,355.5 304.833,355.5 303.5,355.5C 303.847,350.32 304.513,345.32 305.5,340.5 Z"/></g>
<g><path style="opacity:1" fill="#67a61e" d="M 332.5,355.5 C 326.833,355.5 321.167,355.5 315.5,355.5C 315.157,353.517 315.824,352.183 317.5,351.5C 318.919,352.451 320.585,352.784 322.5,352.5C 322.5,350.833 322.5,349.167 322.5,347.5C 323.5,347.5 324.5,347.5 325.5,347.5C 325.216,349.415 325.549,351.081 326.5,352.5C 331.614,353.57 336.614,353.57 341.5,352.5C 343.124,352.64 344.29,351.973 345,350.5C 345.333,347.167 345.667,343.833 346,340.5C 347.011,339.663 348.178,339.33 349.5,339.5C 348.833,344.833 348.167,350.167 347.5,355.5C 342.5,355.5 337.5,355.5 332.5,355.5 Z"/></g>
<g><path style="opacity:1" fill="#76a942" d="M 341.5,352.5 C 336.614,353.57 331.614,353.57 326.5,352.5C 329.448,352.777 332.281,352.444 335,351.5C 335.688,350.668 335.521,350.002 334.5,349.5C 332.775,348.985 331.108,348.318 329.5,347.5C 331.876,345.046 334.543,344.879 337.5,347C 339.746,348.257 341.079,350.09 341.5,352.5 Z"/></g>
<g><path style="opacity:1" fill="#74a340" d="M 378.5,352.5 C 377.833,352.5 377.167,352.5 376.5,352.5C 376.306,350.088 374.973,349.088 372.5,349.5C 372.5,350.833 372.5,352.167 372.5,353.5C 373.5,353.5 374.5,353.5 375.5,353.5C 375.167,354.167 374.833,354.833 374.5,355.5C 368.205,353.72 367.872,350.887 373.5,347C 377.32,346.658 378.986,348.491 378.5,352.5 Z"/></g>
<g><path style="opacity:1" fill="#6da626" d="M 412.5,355.5 C 399.833,355.5 387.167,355.5 374.5,355.5C 374.833,354.833 375.167,354.167 375.5,353.5C 376.167,353.5 376.5,353.167 376.5,352.5C 377.167,352.5 377.833,352.5 378.5,352.5C 379.5,352.5 380.5,352.5 381.5,352.5C 382.167,351.833 382.833,351.167 383.5,350.5C 383.833,351.5 384.5,352.167 385.5,352.5C 386.531,353.249 387.698,353.915 389,354.5C 394.6,353.854 400.1,353.187 405.5,352.5C 404.599,348.759 405.932,346.759 409.5,346.5C 409.5,348.5 409.5,350.5 409.5,352.5C 412.049,352.559 414.049,351.559 415.5,349.5C 416.386,350.325 416.719,351.325 416.5,352.5C 417.5,352.5 418.5,352.5 419.5,352.5C 419.5,351.167 419.5,349.833 419.5,348.5C 420.833,348.5 422.167,348.5 423.5,348.5C 423.5,349.833 423.5,351.167 423.5,352.5C 424.833,352.5 426.167,352.5 427.5,352.5C 427.5,350.833 427.5,349.167 427.5,347.5C 428.5,347.5 429.5,347.5 430.5,347.5C 430.425,350.206 430.092,352.873 429.5,355.5C 423.833,355.5 418.167,355.5 412.5,355.5 Z"/></g>
<g><path style="opacity:1" fill="#7eab49" d="M 435.5,340.5 C 434.92,344.649 435.586,348.316 437.5,351.5C 438.244,354.95 436.91,356.616 433.5,356.5C 433.952,351.002 434.619,345.669 435.5,340.5 Z"/></g>
<g><path style="opacity:1" fill="#72a737" d="M 296.5,346.5 C 297.833,346.5 299.167,346.5 300.5,346.5C 300.453,349.568 299.953,352.568 299,355.5C 294.16,356.85 289.327,356.684 284.5,355C 283.017,352.427 283.517,350.26 286,348.5C 286.402,349.872 286.902,351.205 287.5,352.5C 294.127,355.359 297.127,353.359 296.5,346.5 Z"/></g>
<g><path style="opacity:1" fill="#c3de5d" d="M 58.5,344.5 C 65.1013,355.102 72.1013,365.435 79.5,375.5C 73.9333,371.102 69.2666,365.936 65.5,360C 64.552,359.517 63.552,359.351 62.5,359.5C 62.5,360.5 62.5,361.5 62.5,362.5C 61.8333,362.167 61.1667,361.833 60.5,361.5C 59.8333,359.833 59.1667,358.167 58.5,356.5C 59.5,356.5 60.5,356.5 61.5,356.5C 59.9295,352.677 58.9295,348.677 58.5,344.5 Z"/></g>
<g><path style="opacity:1" fill="#60081f" d="M 103.5,332.5 C 103.134,337.705 103.967,342.705 106,347.5C 108.38,352.272 112.213,354.939 117.5,355.5C 123.191,356.789 129.025,356.789 135,355.5C 141.067,352.883 146.901,349.883 152.5,346.5C 154.363,348.062 155.696,347.729 156.5,345.5C 155.167,341.5 156.5,340.167 160.5,341.5C 160.08,343.326 160.08,345.326 160.5,347.5C 157.358,347.799 155.191,349.466 154,352.5C 150.784,351.348 148.284,352.348 146.5,355.5C 147.376,356.251 148.376,356.751 149.5,357C 148.62,358.356 148.286,359.856 148.5,361.5C 145.298,361.537 143.632,363.203 143.5,366.5C 131.871,375.744 119.204,377.577 105.5,372C 95.4633,361.369 92.7967,349.202 97.5,335.5C 97.3337,342.175 97.5004,348.842 98,355.5C 98.2492,356.624 98.7492,357.624 99.5,358.5C 101.239,356.188 102.572,353.688 103.5,351C 102.539,344.899 102.539,338.733 103.5,332.5 Z"/></g>
<g><path style="opacity:1" fill="#9cb77d" d="M 352.5,353.5 C 352.5,354.833 353.167,355.5 354.5,355.5C 353.791,356.404 352.791,356.737 351.5,356.5C 351.263,355.209 351.596,354.209 352.5,353.5 Z"/></g>
<g><path style="opacity:1" fill="#79a449" d="M 317.5,351.5 C 315.824,352.183 315.157,353.517 315.5,355.5C 321.167,355.5 326.833,355.5 332.5,355.5C 327.319,356.167 321.985,356.833 316.5,357.5C 315.187,360.725 312.853,361.891 309.5,361C 313.638,358.323 315.305,354.49 314.5,349.5C 316.179,349.285 317.179,349.952 317.5,351.5 Z"/></g>
<g><path style="opacity:1" fill="#8bac69" d="M 374.5,355.5 C 387.167,355.5 399.833,355.5 412.5,355.5C 401.007,356.331 389.341,356.831 377.5,357C 376.257,358.154 375.257,359.488 374.5,361C 372.833,361.667 371.167,361.667 369.5,361C 372.079,359.924 373.746,358.091 374.5,355.5 Z"/></g>
<g><path style="opacity:1" fill="#74a042" d="M 447.5,346.5 C 453.156,346.867 454.989,349.867 453,355.5C 451.469,358.272 449.302,360.272 446.5,361.5C 445.833,361.333 445.167,361.167 444.5,361C 446.208,359.49 447.874,357.99 449.5,356.5C 443.611,354.39 442.944,351.057 447.5,346.5 Z"/></g>
<g><path style="opacity:1" fill="#77995b" d="M 317.5,358.5 C 319.924,358.192 322.257,358.526 324.5,359.5C 323.333,359.833 322.167,360.167 321,360.5C 319.319,360.392 318.152,359.725 317.5,358.5 Z"/></g>
<g><path style="opacity:1" fill="#79916b" d="M 393.5,358.5 C 395.465,358.948 395.798,359.948 394.5,361.5C 393.614,360.675 393.281,359.675 393.5,358.5 Z"/></g>
<g><path style="opacity:1" fill="#9aae45" d="M 547.5,332.5 C 538.805,351.908 527.138,369.241 512.5,384.5C 516.252,378.023 520.752,372.023 526,366.5C 533.483,355.222 540.65,343.888 547.5,332.5 Z"/></g>
<g><path style="opacity:1" fill="#20ab41" d="M 483.5,349.5 C 489.01,353.869 491.51,359.536 491,366.5C 487.549,373.305 482.383,377.805 475.5,380C 486.159,370.331 486.159,360.831 475.5,351.5C 477.312,351.771 478.978,352.438 480.5,353.5C 482.177,355.54 483.844,357.54 485.5,359.5C 485.833,358.833 486.167,358.167 486.5,357.5C 485.878,354.626 484.878,351.96 483.5,349.5 Z"/></g>
<g><path style="opacity:1" fill="#a5b49c" d="M 396.5,363.5 C 397.773,364.077 397.773,364.743 396.5,365.5C 395.232,366.428 393.899,366.595 392.5,366C 393.858,365.066 395.192,364.232 396.5,363.5 Z"/></g>
<g><path style="opacity:1" fill="#a0b34b" d="M 60.5,361.5 C 61.1667,361.833 61.8333,362.167 62.5,362.5C 64.7847,366.727 67.7847,370.393 71.5,373.5C 72.3195,375.974 73.3195,378.307 74.5,380.5C 70.5745,375.398 66.4078,370.398 62,365.5C 61.2086,364.255 60.7086,362.922 60.5,361.5 Z"/></g>
<g><path style="opacity:1" fill="#b8d064" d="M 522.5,360.5 C 521.447,364.581 519.114,367.915 515.5,370.5C 517.344,366.808 519.677,363.475 522.5,360.5 Z"/></g>
<g><path style="opacity:1" fill="#d0ef4e" d="M 549.5,324.5 C 548.629,327.112 547.963,329.779 547.5,332.5C 540.65,343.888 533.483,355.222 526,366.5C 520.752,372.023 516.252,378.023 512.5,384.5C 512.5,384.833 512.5,385.167 512.5,385.5C 506.058,390.768 499.725,396.268 493.5,402C 491.21,403.777 489.543,405.944 488.5,408.5C 484.587,409.45 481.92,411.783 480.5,415.5C 480.167,415.5 479.833,415.5 479.5,415.5C 477.473,415.662 475.473,415.495 473.5,415C 474.582,413.67 475.249,412.17 475.5,410.5C 476.978,410.762 478.311,410.429 479.5,409.5C 483.559,406.443 486.893,402.776 489.5,398.5C 494.167,395.833 497.833,392.167 500.5,387.5C 502.716,386.797 504.549,385.464 506,383.5C 509.185,379.108 512.352,374.774 515.5,370.5C 519.114,367.915 521.447,364.581 522.5,360.5C 525.445,354.896 528.779,349.562 532.5,344.5C 533.87,344.144 534.87,343.31 535.5,342C 538.76,334.983 542.093,328.15 545.5,321.5C 547.032,319.208 548.699,316.875 550.5,314.5C 550.833,315.5 551.167,316.5 551.5,317.5C 550.818,319.841 550.151,322.174 549.5,324.5 Z"/></g>
<g><path style="opacity:1" fill="#afc962" d="M 515.5,370.5 C 512.352,374.774 509.185,379.108 506,383.5C 504.549,385.464 502.716,386.797 500.5,387.5C 505.157,381.511 510.157,375.844 515.5,370.5 Z"/></g>
<g><path style="opacity:1" fill="#d2f14d" d="M 79.5,375.5 C 81.0941,378.764 83.4275,381.431 86.5,383.5C 88.914,384.911 90.5806,386.911 91.5,389.5C 93.2406,394.906 96.9073,398.239 102.5,399.5C 103.128,403.491 101.795,404.824 98.5,403.5C 94.1082,399.103 89.4416,395.103 84.5,391.5C 83.1667,388.167 80.8333,385.833 77.5,384.5C 76.5,383.167 75.5,381.833 74.5,380.5C 73.3195,378.307 72.3195,375.974 71.5,373.5C 67.7847,370.393 64.7847,366.727 62.5,362.5C 62.5,361.5 62.5,360.5 62.5,359.5C 63.552,359.351 64.552,359.517 65.5,360C 69.2666,365.936 73.9333,371.102 79.5,375.5 Z"/></g>
<g><path style="opacity:1" fill="#b4c675" d="M 79.5,375.5 C 82.5725,377.569 84.9059,380.236 86.5,383.5C 83.4275,381.431 81.0941,378.764 79.5,375.5 Z"/></g>
<g><path style="opacity:1" fill="#98a950" d="M 77.5,384.5 C 80.8333,385.833 83.1667,388.167 84.5,391.5C 81.8333,389.5 79.5,387.167 77.5,384.5 Z"/></g>
<g><path style="opacity:1" fill="#96a83f" d="M 84.5,391.5 C 89.4416,395.103 94.1082,399.103 98.5,403.5C 98.8333,404.167 99.1667,404.833 99.5,405.5C 93.8918,401.561 88.8918,396.894 84.5,391.5 Z"/></g>
<g><path style="opacity:1" fill="#b1ca69" d="M 500.5,387.5 C 497.833,392.167 494.167,395.833 489.5,398.5C 492.833,394.5 496.5,390.833 500.5,387.5 Z"/></g>
<g><path style="opacity:1" fill="#bfda6a" d="M 91.5,389.5 C 95.7908,392.123 99.4575,395.456 102.5,399.5C 96.9073,398.239 93.2406,394.906 91.5,389.5 Z"/></g>
<g><path style="opacity:1" fill="#9aa94f" d="M 512.5,385.5 C 505.106,393.896 497.106,401.562 488.5,408.5C 489.543,405.944 491.21,403.777 493.5,402C 499.725,396.268 506.058,390.768 512.5,385.5 Z"/></g>
<g><path style="opacity:1" fill="#424546" d="M 325.5,392.5 C 327.337,392.639 327.67,393.306 326.5,394.5C 325.702,394.043 325.369,393.376 325.5,392.5 Z"/></g>
<g><path style="opacity:1" fill="#3f4345" d="M 330.5,392.5 C 332.337,392.639 332.67,393.306 331.5,394.5C 330.702,394.043 330.369,393.376 330.5,392.5 Z"/></g>
<g><path style="opacity:1" fill="#262a2f" d="M 216.5,393.5 C 218.337,393.639 218.67,394.306 217.5,395.5C 216.702,395.043 216.369,394.376 216.5,393.5 Z"/></g>
<g><path style="opacity:1" fill="#303435" d="M 285.5,393.5 C 286.675,393.281 287.675,393.614 288.5,394.5C 286.948,395.798 285.948,395.465 285.5,393.5 Z"/></g>
<g><path style="opacity:1" fill="#a7aaad" d="M 269.5,390.5 C 270.167,395.5 270.833,400.5 271.5,405.5C 271.44,406.043 271.107,406.376 270.5,406.5C 269.505,401.208 269.172,395.875 269.5,390.5 Z"/></g>
<g><path style="opacity:1" fill="#3b3f40" d="M 395.5,403.5 C 394.833,403.5 394.5,403.833 394.5,404.5C 389.083,400.974 383.083,398.974 376.5,398.5C 383.79,396.905 390.123,398.571 395.5,403.5 Z"/></g>
<g><path style="opacity:1" fill="#1b1d21" d="M 269.5,390.5 C 269.172,395.875 269.505,401.208 270.5,406.5C 271.107,406.376 271.44,406.043 271.5,405.5C 273.685,403.369 275.018,400.703 275.5,397.5C 276.784,402.593 275.118,406.26 270.5,408.5C 270.028,410.531 269.028,412.198 267.5,413.5C 261.439,410.152 258.439,405.152 258.5,398.5C 260.014,403.333 262.681,407.333 266.5,410.5C 266.56,411.043 266.893,411.376 267.5,411.5C 268.167,404.345 268.833,397.345 269.5,390.5 Z"/></g>
<g><path style="opacity:1" fill="#828586" d="M 279.5,390.5 C 279.56,389.957 279.893,389.624 280.5,389.5C 281.167,394.985 281.833,400.319 282.5,405.5C 282.44,406.043 282.107,406.376 281.5,406.5C 280.833,401.015 280.167,395.681 279.5,390.5 Z"/></g>
<g><path style="opacity:1" fill="#444548" d="M 248.5,389.5 C 249.816,392.087 250.483,395.087 250.5,398.5C 250.628,402.02 250.128,405.353 249,408.5C 248.5,402.175 248.334,395.842 248.5,389.5 Z"/></g>
<g><path style="opacity:1" fill="#222426" d="M 279.5,390.5 C 280.167,395.681 280.833,401.015 281.5,406.5C 282.107,406.376 282.44,406.043 282.5,405.5C 284.394,402.873 286.061,400.206 287.5,397.5C 287.183,400.572 287.516,403.572 288.5,406.5C 289.107,406.376 289.44,406.043 289.5,405.5C 292.157,403.534 293.823,400.867 294.5,397.5C 295.837,407.716 298.17,407.716 301.5,397.5C 302.844,407.712 305.177,407.712 308.5,397.5C 309.237,402.823 306.904,406.49 301.5,408.5C 300.833,407.5 300.167,406.5 299.5,405.5C 297.132,408.014 294.799,408.014 292.5,405.5C 290.395,408.667 288.062,409 285.5,406.5C 283.677,407.747 281.677,408.414 279.5,408.5C 279.5,402.5 279.5,396.5 279.5,390.5 Z"/></g>
<g><path style="opacity:1" fill="#888a8b" d="M 287.5,397.5 C 288.167,400.167 288.833,402.833 289.5,405.5C 289.44,406.043 289.107,406.376 288.5,406.5C 287.516,403.572 287.183,400.572 287.5,397.5 Z"/></g>
<g><path style="opacity:1" fill="#272a2b" d="M 243.5,389.5 C 244.794,391.048 245.461,393.048 245.5,395.5C 245.861,400.248 244.528,404.415 241.5,408C 236.5,408.167 231.5,408.333 226.5,408.5C 220.99,408.45 215.657,407.783 210.5,406.5C 208.742,407.128 207.242,408.128 206,409.5C 205.902,411.619 205.069,413.286 203.5,414.5C 203.167,414.167 202.833,413.833 202.5,413.5C 204.007,408.311 205.007,402.978 205.5,397.5C 206.803,409.057 209.137,409.057 212.5,397.5C 213.484,400.428 213.817,403.428 213.5,406.5C 221.174,406.666 228.841,406.5 236.5,406C 231.012,401.447 224.679,398.947 217.5,398.5C 225.397,397.52 232.397,399.686 238.5,405C 240.888,405.865 242.388,405.032 243,402.5C 243.499,398.179 243.666,393.846 243.5,389.5 Z"/></g>
<g><path style="opacity:1" fill="#2a2c2e" d="M 394.5,404.5 C 394.5,403.833 394.833,403.5 395.5,403.5C 396.833,404.5 398.167,405.5 399.5,406.5C 390.833,407.167 382.167,407.833 373.5,408.5C 373.762,409.978 373.429,411.311 372.5,412.5C 370.668,411.752 369.001,410.752 367.5,409.5C 368.391,408.41 369.391,408.41 370.5,409.5C 371.833,407.833 371.833,406.167 370.5,404.5C 368.833,405.667 367.167,406.833 365.5,408C 358.138,407.823 350.805,407.99 343.5,408.5C 340.957,408.36 338.623,407.694 336.5,406.5C 334.827,408.086 332.827,408.753 330.5,408.5C 330.5,405.5 330.5,402.5 330.5,399.5C 324.866,400.444 320.533,403.444 317.5,408.5C 316.592,407.21 316.759,405.877 318,404.5C 321.878,400.144 326.711,397.811 332.5,397.5C 332.5,400.167 332.5,402.833 332.5,405.5C 333.675,405.719 334.675,405.386 335.5,404.5C 338.493,395.488 339.826,396.155 339.5,406.5C 342.572,406.817 345.572,406.484 348.5,405.5C 346.234,404.568 344.234,403.234 342.5,401.5C 348.395,396.718 354.728,396.218 361.5,400C 361.957,400.414 362.291,400.914 362.5,401.5C 360.5,402.833 358.5,404.167 356.5,405.5C 360.248,406.842 363.915,406.675 367.5,405C 369.057,402.704 370.724,400.538 372.5,398.5C 373.48,401.086 373.813,403.753 373.5,406.5C 381.174,406.666 388.841,406.5 396.5,406C 395.956,405.283 395.289,404.783 394.5,404.5 Z"/></g>
<g><path style="opacity:1" fill="#6c6e71" d="M 269.5,390.5 C 268.833,397.345 268.167,404.345 267.5,411.5C 266.893,411.376 266.56,411.043 266.5,410.5C 267.167,403.655 267.833,396.655 268.5,389.5C 269.107,389.624 269.44,389.957 269.5,390.5 Z"/></g>
<g><path style="opacity:1" fill="#646668" d="M 399.5,406.5 C 400.043,406.56 400.376,406.893 400.5,407.5C 391.525,408.498 382.525,408.832 373.5,408.5C 382.167,407.833 390.833,407.167 399.5,406.5 Z"/></g>
<g><path style="opacity:1" fill="#b9d268" d="M 489.5,398.5 C 486.893,402.776 483.559,406.443 479.5,409.5C 478.311,410.429 476.978,410.762 475.5,410.5C 480.126,406.51 484.793,402.51 489.5,398.5 Z"/></g>
<g><path style="opacity:1" fill="#94989a" d="M 270.5,408.5 C 270.5,410.5 270.5,412.5 270.5,414.5C 269.209,414.737 268.209,414.404 267.5,413.5C 269.028,412.198 270.028,410.531 270.5,408.5 Z"/></g>
<g><path style="opacity:1" fill="#38393b" d="M 209.5,409.5 C 211.337,409.639 211.67,410.306 210.5,411.5C 209.702,411.043 209.369,410.376 209.5,409.5 Z"/></g>
<g><path style="opacity:1" fill="#444648" d="M 273.5,409.5 C 274.5,409.5 275.5,409.5 276.5,409.5C 275.754,413.31 274.754,413.31 273.5,409.5 Z"/></g>
<g><path style="opacity:1" fill="#505455" d="M 335.5,409.5 C 337.337,409.639 337.67,410.306 336.5,411.5C 335.702,411.043 335.369,410.376 335.5,409.5 Z"/></g>
<g><path style="opacity:1" fill="#282b2e" d="M 386.5,410.5 C 388.337,410.639 388.67,411.306 387.5,412.5C 386.702,412.043 386.369,411.376 386.5,410.5 Z"/></g>
<g><path style="opacity:1" fill="#a0ad56" d="M 488.5,408.5 C 485.874,410.823 483.207,413.157 480.5,415.5C 481.92,411.783 484.587,409.45 488.5,408.5 Z"/></g>
<g><path style="opacity:1" fill="#c0da54" d="M 475.5,410.5 C 475.249,412.17 474.582,413.67 473.5,415C 475.473,415.495 477.473,415.662 479.5,415.5C 474.064,420.601 468.064,424.934 461.5,428.5C 462.94,426.612 464.606,424.945 466.5,423.5C 463.911,422.795 461.244,422.795 458.5,423.5C 463.948,418.936 469.615,414.602 475.5,410.5 Z"/></g>
<g><path style="opacity:1" fill="#434548" d="M 273.5,423.5 C 275.337,423.639 275.67,424.306 274.5,425.5C 273.702,425.043 273.369,424.376 273.5,423.5 Z"/></g>
<g><path style="opacity:1" fill="#3a3d40" d="M 278.5,423.5 C 280.337,423.639 280.67,424.306 279.5,425.5C 278.702,425.043 278.369,424.376 278.5,423.5 Z"/></g>
<g><path style="opacity:1" fill="#303335" d="M 306.5,423.5 C 308.337,423.639 308.67,424.306 307.5,425.5C 306.702,425.043 306.369,424.376 306.5,423.5 Z"/></g>
<g><path style="opacity:1" fill="#252c2c" d="M 292.5,424.5 C 294.337,424.639 294.67,425.306 293.5,426.5C 292.702,426.043 292.369,425.376 292.5,424.5 Z"/></g>
<g><path style="opacity:1" fill="#bed955" d="M 102.5,399.5 C 112.594,407.946 122.594,416.279 132.5,424.5C 133.552,424.351 134.552,424.517 135.5,425C 139.147,428.503 143.147,431.337 147.5,433.5C 142.662,432.02 137.995,430.02 133.5,427.5C 133.167,427.667 132.833,427.833 132.5,428C 135.364,430.366 138.031,432.866 140.5,435.5C 130.12,430.648 120.786,424.315 112.5,416.5C 107.281,413.954 102.948,410.287 99.5,405.5C 99.1667,404.833 98.8333,404.167 98.5,403.5C 101.795,404.824 103.128,403.491 102.5,399.5 Z"/></g>
<g><path style="opacity:1" fill="#d2f349" d="M 132.5,424.5 C 132.03,425.693 131.03,426.36 129.5,426.5C 128.5,426.333 127.5,426.167 126.5,426C 125.695,424.028 124.361,422.528 122.5,421.5C 123.723,420.386 125.056,420.219 126.5,421C 128.391,422.442 130.391,423.609 132.5,424.5 Z"/></g>
<g><path style="opacity:1" fill="#d3f44d" d="M 112.5,416.5 C 110.615,414.947 109.615,412.947 109.5,410.5C 110.978,410.238 112.311,410.571 113.5,411.5C 115.315,413.906 117.648,415.573 120.5,416.5C 121.428,417.768 121.595,419.101 121,420.5C 118.579,418.303 115.745,416.97 112.5,416.5 Z"/></g>
<g><path style="opacity:1" fill="#d3f34c" d="M 147.5,433.5 C 147.833,433.5 148.167,433.5 148.5,433.5C 148.539,434.583 148.873,435.583 149.5,436.5C 148.833,436.833 148.167,437.167 147.5,437.5C 145.423,436.063 143.09,435.396 140.5,435.5C 138.031,432.866 135.364,430.366 132.5,428C 132.833,427.833 133.167,427.667 133.5,427.5C 137.995,430.02 142.662,432.02 147.5,433.5 Z"/></g>
<g><path style="opacity:1" fill="#a2b847" d="M 461.5,428.5 C 458.758,431.421 455.425,433.421 451.5,434.5C 451.369,433.624 451.702,432.957 452.5,432.5C 455.445,430.857 458.445,429.524 461.5,428.5 Z"/></g>
<g><path style="opacity:1" fill="#c2dc55" d="M 148.5,433.5 C 154.567,436.863 160.567,440.197 166.5,443.5C 162.412,442.566 158.412,441.233 154.5,439.5C 153.833,439.833 153.167,440.167 152.5,440.5C 153.193,441.518 153.859,442.518 154.5,443.5C 149.5,441.336 144.833,438.669 140.5,435.5C 143.09,435.396 145.423,436.063 147.5,437.5C 148.167,437.167 148.833,436.833 149.5,436.5C 148.873,435.583 148.539,434.583 148.5,433.5 Z"/></g>
<g><path style="opacity:1" fill="#292c2e" d="M 304.5,435.5 C 296.655,434.594 295.988,432.428 302.5,429C 307.403,428.063 312.07,428.73 316.5,431C 316.957,431.414 317.291,431.914 317.5,432.5C 315.5,433.833 313.5,435.167 311.5,436.5C 315.248,437.842 318.915,437.675 322.5,436C 324.057,433.704 325.724,431.538 327.5,429.5C 328.833,434.167 328.833,438.833 327.5,443.5C 325.483,442.826 323.817,441.659 322.5,440C 323.549,439.508 324.549,439.674 325.5,440.5C 326.833,438.833 326.833,437.167 325.5,435.5C 322.347,438.243 318.68,439.577 314.5,439.5C 309.175,438.297 303.841,438.297 298.5,439.5C 295.957,439.36 293.623,438.694 291.5,437.5C 289.019,439.805 286.686,439.805 284.5,437.5C 282.591,438.348 280.591,438.682 278.5,438.5C 278.5,435.833 278.5,433.167 278.5,430.5C 272.866,431.444 268.533,434.444 265.5,439.5C 265.889,434.902 268.556,431.735 273.5,430C 275.74,429.023 278.073,428.523 280.5,428.5C 280.5,431.167 280.5,433.833 280.5,436.5C 281.822,436.67 282.989,436.337 284,435.5C 286.319,426.272 287.486,426.605 287.5,436.5C 288.675,436.719 289.675,436.386 290.5,435.5C 293.491,426.48 294.825,427.146 294.5,437.5C 298.329,438.069 301.663,437.402 304.5,435.5 Z"/></g>
<g><path style="opacity:1" fill="#eaeaeb" d="M 304.5,435.5 C 303.235,434.521 301.901,433.521 300.5,432.5C 301.025,431.808 301.692,431.308 302.5,431C 305.833,430.333 309.167,430.333 312.5,431C 313.308,431.308 313.975,431.808 314.5,432.5C 311.639,434.98 308.306,435.98 304.5,435.5 Z"/></g>
<g><path style="opacity:1" fill="#414344" d="M 283.5,440.5 C 285.337,440.639 285.67,441.306 284.5,442.5C 283.702,442.043 283.369,441.376 283.5,440.5 Z"/></g>
<g><path style="opacity:1" fill="#a0b548" d="M 448.5,436.5 C 444.61,439.613 440.276,441.946 435.5,443.5C 439.065,439.882 443.398,437.549 448.5,436.5 Z"/></g>
<g><path style="opacity:1" fill="#abc04c" d="M 154.5,443.5 C 156.547,443.511 158.547,443.844 160.5,444.5C 165.762,447.288 170.762,450.288 175.5,453.5C 168.113,450.929 161.113,447.596 154.5,443.5 Z"/></g>
<g><path style="opacity:1" fill="#777b7c" d="M 283.5,444.5 C 285.337,444.639 285.67,445.306 284.5,446.5C 283.702,446.043 283.369,445.376 283.5,444.5 Z"/></g>
<g><path style="opacity:1" fill="#caea51" d="M 166.5,443.5 C 177.017,448.227 187.684,452.561 198.5,456.5C 198.144,457.87 197.31,458.87 196,459.5C 193.901,458.713 191.734,458.38 189.5,458.5C 184.533,457.433 179.866,455.766 175.5,453.5C 170.762,450.288 165.762,447.288 160.5,444.5C 158.547,443.844 156.547,443.511 154.5,443.5C 153.859,442.518 153.193,441.518 152.5,440.5C 153.167,440.167 153.833,439.833 154.5,439.5C 158.412,441.233 162.412,442.566 166.5,443.5 Z"/></g>
<g><path style="opacity:1" fill="#c5e352" d="M 461.5,428.5 C 458.445,429.524 455.445,430.857 452.5,432.5C 451.702,432.957 451.369,433.624 451.5,434.5C 450.5,435.167 449.5,435.833 448.5,436.5C 443.398,437.549 439.065,439.882 435.5,443.5C 419.134,452.676 401.8,459.676 383.5,464.5C 383.721,463.265 384.388,462.265 385.5,461.5C 385,461.167 384.5,460.833 384,460.5C 379.215,461.819 374.382,462.819 369.5,463.5C 401.145,454.403 430.812,441.07 458.5,423.5C 461.244,422.795 463.911,422.795 466.5,423.5C 464.606,424.945 462.94,426.612 461.5,428.5 Z"/></g>
<g><path style="opacity:1" fill="#bfd852" d="M 198.5,456.5 C 201.443,456.98 204.11,457.98 206.5,459.5C 198.688,459.447 198.688,460.281 206.5,462C 207.252,462.671 207.586,463.504 207.5,464.5C 201.117,463.41 195.117,461.41 189.5,458.5C 191.734,458.38 193.901,458.713 196,459.5C 197.31,458.87 198.144,457.87 198.5,456.5 Z"/></g>
<g><path style="opacity:1" fill="#d1f34b" d="M 383.5,464.5 C 380.772,464.171 378.438,464.837 376.5,466.5C 374.236,467.219 371.903,467.552 369.5,467.5C 366.927,467.852 364.594,467.352 362.5,466C 364.974,465.963 366.974,465.13 368.5,463.5C 368.833,463.5 369.167,463.5 369.5,463.5C 374.382,462.819 379.215,461.819 384,460.5C 384.5,460.833 385,461.167 385.5,461.5C 384.388,462.265 383.721,463.265 383.5,464.5 Z"/></g>
<g><path style="opacity:1" fill="#a1b24f" d="M 383.5,464.5 C 381.401,465.612 379.067,466.279 376.5,466.5C 378.438,464.837 380.772,464.171 383.5,464.5 Z"/></g>
<g><path style="opacity:1" fill="#aebb63" d="M 213.5,466.5 C 216.228,466.171 218.562,466.837 220.5,468.5C 217.933,468.279 215.599,467.612 213.5,466.5 Z"/></g>
<g><path style="opacity:1" fill="#c3dd55" d="M 368.5,463.5 C 366.974,465.13 364.974,465.963 362.5,466C 364.594,467.352 366.927,467.852 369.5,467.5C 366.578,469.531 363.245,470.698 359.5,471C 351.219,472.603 342.885,473.769 334.5,474.5C 334.918,473.778 335.584,473.278 336.5,473C 341.159,473.202 345.326,472.036 349,469.5C 353.485,471.168 357.652,470.668 361.5,468C 359.19,467.503 356.857,467.337 354.5,467.5C 354.5,467.167 354.5,466.833 354.5,466.5C 358.911,464.87 363.578,463.87 368.5,463.5 Z"/></g>
<g><path style="opacity:1" fill="#aebd70" d="M 221.5,468.5 C 223.903,468.448 226.236,468.781 228.5,469.5C 228.5,469.833 228.5,470.167 228.5,470.5C 225.933,470.279 223.599,469.612 221.5,468.5 Z"/></g>
<g><path style="opacity:1" fill="#b8d04f" d="M 228.5,470.5 C 228.5,470.167 228.5,469.833 228.5,469.5C 231.187,469.336 233.854,469.503 236.5,470C 241.953,471.548 247.286,473.048 252.5,474.5C 244.371,473.786 236.371,472.453 228.5,470.5 Z"/></g>
<g><path style="opacity:1" fill="#d6ed88" d="M 354.5,466.5 C 354.5,466.833 354.5,467.167 354.5,467.5C 346.76,469.505 338.76,470.505 330.5,470.5C 338.268,468.551 346.268,467.217 354.5,466.5 Z"/></g>
<g><path style="opacity:1" fill="#d2f154" d="M 206.5,459.5 C 224.29,464.191 242.29,467.858 260.5,470.5C 264.759,471.861 269.093,472.861 273.5,473.5C 270.615,473.194 267.948,473.527 265.5,474.5C 262.833,474.5 260.167,474.5 257.5,474.5C 255.833,474.5 254.167,474.5 252.5,474.5C 247.286,473.048 241.953,471.548 236.5,470C 233.854,469.503 231.187,469.336 228.5,469.5C 226.236,468.781 223.903,468.448 221.5,468.5C 221.167,468.5 220.833,468.5 220.5,468.5C 218.562,466.837 216.228,466.171 213.5,466.5C 211.302,466.125 209.302,465.458 207.5,464.5C 207.586,463.504 207.252,462.671 206.5,462C 198.688,460.281 198.688,459.447 206.5,459.5 Z"/></g>
<g><path style="opacity:1" fill="#cbe555" d="M 354.5,467.5 C 356.857,467.337 359.19,467.503 361.5,468C 357.652,470.668 353.485,471.168 349,469.5C 345.326,472.036 341.159,473.202 336.5,473C 335.584,473.278 334.918,473.778 334.5,474.5C 314.577,477.507 294.577,478.173 274.5,476.5C 274.5,476.167 274.5,475.833 274.5,475.5C 289.504,475.667 304.504,475.5 319.5,475C 324.018,474.935 328.351,474.269 332.5,473C 327.511,472.501 322.511,472.334 317.5,472.5C 321.639,471.437 325.972,470.77 330.5,470.5C 338.76,470.505 346.76,469.505 354.5,467.5 Z"/></g>
<g><path style="opacity:1" fill="#dff77b" d="M 260.5,470.5 C 278.464,471.965 296.464,472.632 314.5,472.5C 301.01,473.496 287.344,473.829 273.5,473.5C 269.093,472.861 264.759,471.861 260.5,470.5 Z"/></g>
<g><path style="opacity:1" fill="#d7f844" d="M 314.5,472.5 C 315.5,472.5 316.5,472.5 317.5,472.5C 322.511,472.334 327.511,472.501 332.5,473C 328.351,474.269 324.018,474.935 319.5,475C 304.504,475.5 289.504,475.667 274.5,475.5C 271.391,475.736 268.391,475.403 265.5,474.5C 267.948,473.527 270.615,473.194 273.5,473.5C 287.344,473.829 301.01,473.496 314.5,472.5 Z"/></g>
<g><path style="opacity:1" fill="#acc058" d="M 257.5,474.5 C 260.167,474.5 262.833,474.5 265.5,474.5C 268.391,475.403 271.391,475.736 274.5,475.5C 274.5,475.833 274.5,476.167 274.5,476.5C 270.154,476.666 265.821,476.499 261.5,476C 259.942,475.79 258.609,475.29 257.5,474.5 Z"/></g>
</svg>
